<?xml version="1.0" encoding="UTF-8"?>
<svg version="1.1" xmlns="http://www.w3.org/2000/svg" width="148" height="210">
<path d="M0 0 C48.84 0 97.68 0 148 0 C148 69.3 148 138.6 148 210 C99.16 210 50.32 210 0 210 C0 140.7 0 71.4 0 0 Z " fill="#F9F0E9" transform="translate(0,0)"/>
<path d="M0 0 C0.98226562 0.62261719 0.98226562 0.62261719 1.984375 1.2578125 C2.68046875 1.69351562 3.3765625 2.12921875 4.09375 2.578125 C9.17564395 6.0743152 12.59290461 10.1531251 15.984375 15.2578125 C16.60828125 16.175625 17.2321875 17.0934375 17.875 18.0390625 C23.2855575 26.22088116 23.2855575 26.22088116 23.984375 31.2578125 C24.644375 31.2578125 25.304375 31.2578125 25.984375 31.2578125 C27.9296875 33.55859375 27.9296875 33.55859375 30.109375 36.5703125 C30.83382812 37.55644531 31.55828125 38.54257813 32.3046875 39.55859375 C33.984375 42.2578125 33.984375 42.2578125 33.984375 45.2578125 C34.644375 45.2578125 35.304375 45.2578125 35.984375 45.2578125 C37.16796875 46.68359375 37.16796875 46.68359375 38.421875 48.5703125 C39.68598694 50.46053631 40.86203469 52.13674989 42.48046875 53.73828125 C44.17197141 55.44735797 45.34719597 57.21354708 46.609375 59.2578125 C47.03476563 59.9384375 47.46015625 60.6190625 47.8984375 61.3203125 C49.90446292 64.89940822 50.19956441 67.97198381 50.296875 72.0078125 C50.35294922 73.51601562 50.35294922 73.51601562 50.41015625 75.0546875 C49.77905041 79.8024562 48.14728579 83.5962936 44.32983398 86.52880859 C42.44016243 87.6496346 40.53036663 88.62606966 38.546875 89.5703125 C37.89138672 89.90353516 37.23589844 90.23675781 36.56054688 90.58007812 C34.71599245 91.5069806 32.85756922 92.39053916 30.984375 93.2578125 C30.12328125 93.66128906 29.2621875 94.06476563 28.375 94.48046875 C25.52671255 95.40662758 23.15956048 95.45480492 20.171875 95.3828125 C19.19605469 95.36476563 18.22023438 95.34671875 17.21484375 95.328125 C16.47878906 95.30492188 15.74273437 95.28171875 14.984375 95.2578125 C14.984375 95.9178125 14.984375 96.5778125 14.984375 97.2578125 C11.354375 97.2578125 7.724375 97.2578125 3.984375 97.2578125 C4.149375 98.70929688 4.314375 100.16078125 4.484375 101.65625 C5.8249772 116.19472153 4.06717569 125.62439719 -3.015625 138.2578125 C-3.83136614 139.79186357 -4.64253147 141.32835616 -5.44921875 142.8671875 C-6.60124596 145.06421789 -7.75776794 147.25534169 -8.95654297 149.42724609 C-11.42967836 153.92904664 -13.2957198 158.41546037 -15.015625 163.2578125 C-15.67629219 164.92686645 -16.34000752 166.5947541 -17.015625 168.2578125 C-18.005625 168.2578125 -18.995625 168.2578125 -20.015625 168.2578125 C-20.18578125 167.60296875 -20.3559375 166.948125 -20.53125 166.2734375 C-22.18585492 160.04226579 -24.08626051 153.96175531 -26.24609375 147.88671875 C-27.015625 145.2578125 -27.015625 145.2578125 -27.015625 141.2578125 C-27.675625 141.2578125 -28.335625 141.2578125 -29.015625 141.2578125 C-30.0315709 137.83515981 -31.02883266 134.40870243 -31.984375 130.96875 C-32.56382755 128.88359878 -33.15682682 126.80173061 -33.796875 124.734375 C-36.03437529 116.3437489 -34.21267774 107.71084644 -33.015625 99.2578125 C-34.26859375 99.26941406 -35.5215625 99.28101562 -36.8125 99.29296875 C-38.46354017 99.30234966 -40.11458196 99.31144954 -41.765625 99.3203125 C-42.590625 99.32869141 -43.415625 99.33707031 -44.265625 99.34570312 C-45.46445312 99.35053711 -45.46445312 99.35053711 -46.6875 99.35546875 C-47.4206543 99.36070557 -48.15380859 99.36594238 -48.90917969 99.37133789 C-51.0618099 99.2553234 -52.9470385 98.84854521 -55.015625 98.2578125 C-55.015625 97.5978125 -55.015625 96.9378125 -55.015625 96.2578125 C-57.48128153 94.97567111 -59.93977789 93.87824971 -62.515625 92.8203125 C-65.43477251 91.51712165 -67.6774414 90.40894141 -70.015625 88.2578125 C-70.015625 87.5978125 -70.015625 86.9378125 -70.015625 86.2578125 C-68.365625 86.9178125 -66.715625 87.5778125 -65.015625 88.2578125 C-65.03882813 87.11183594 -65.06203125 85.96585937 -65.0859375 84.78515625 C-65.10470979 83.2552149 -65.12290841 81.72526644 -65.140625 80.1953125 C-65.16576172 79.06706055 -65.16576172 79.06706055 -65.19140625 77.91601562 C-65.23449439 72.93933534 -64.5177743 68.99490537 -63.015625 64.2578125 C-63.015625 63.2678125 -63.015625 62.2778125 -63.015625 61.2578125 C-63.510625 62.2478125 -63.510625 62.2478125 -64.015625 63.2578125 C-64.675625 63.2578125 -65.335625 63.2578125 -66.015625 63.2578125 C-66.015625 64.2478125 -66.015625 65.2378125 -66.015625 66.2578125 C-66.675625 66.2578125 -67.335625 66.2578125 -68.015625 66.2578125 C-68.675625 67.9078125 -69.335625 69.5578125 -70.015625 71.2578125 C-71.015625 68.2578125 -71.015625 68.2578125 -69.87109375 65.69921875 C-69.04544922 64.27416016 -69.04544922 64.27416016 -68.203125 62.8203125 C-67.66042969 61.87285156 -67.11773437 60.92539063 -66.55859375 59.94921875 C-66.04941406 59.06105469 -65.54023437 58.17289063 -65.015625 57.2578125 C-64.33749686 55.93027175 -63.66574971 54.59928933 -63.015625 53.2578125 C-62.355625 53.2578125 -61.695625 53.2578125 -61.015625 53.2578125 C-60.9125 52.5978125 -60.809375 51.9378125 -60.703125 51.2578125 C-60.0220996 48.28606529 -59.01624154 45.56385508 -57.9140625 42.7265625 C-56.06407083 37.64310712 -54.57109896 32.43746182 -53.015625 27.2578125 C-52.355625 27.2578125 -51.695625 27.2578125 -51.015625 27.2578125 C-50.9125 26.4121875 -50.809375 25.5665625 -50.703125 24.6953125 C-49.47174322 18.53840359 -46.89307238 13.19274553 -43.015625 8.2578125 C-40.765625 7.3828125 -40.765625 7.3828125 -39.015625 7.2578125 C-39.015625 6.5978125 -39.015625 5.9378125 -39.015625 5.2578125 C-37.07421875 3.8203125 -37.07421875 3.8203125 -34.453125 2.2578125 C-33.60621094 1.7421875 -32.75929687 1.2265625 -31.88671875 0.6953125 C-22.35100874 -4.07902938 -9.59314944 -5.15721944 0 0 Z " fill="#2C2E35" transform="translate(89.015625,26.7421875)"/>
<path d="M0 0 C0.98226562 0.62261719 0.98226562 0.62261719 1.984375 1.2578125 C2.68046875 1.69351562 3.3765625 2.12921875 4.09375 2.578125 C9.17564395 6.0743152 12.59290461 10.1531251 15.984375 15.2578125 C16.60828125 16.175625 17.2321875 17.0934375 17.875 18.0390625 C23.2855575 26.22088116 23.2855575 26.22088116 23.984375 31.2578125 C24.644375 31.2578125 25.304375 31.2578125 25.984375 31.2578125 C27.9296875 33.55859375 27.9296875 33.55859375 30.109375 36.5703125 C30.83382812 37.55644531 31.55828125 38.54257813 32.3046875 39.55859375 C33.984375 42.2578125 33.984375 42.2578125 33.984375 45.2578125 C34.644375 45.2578125 35.304375 45.2578125 35.984375 45.2578125 C37.4921875 46.9375 37.4921875 46.9375 39.109375 49.1328125 C39.64820313 49.85210937 40.18703125 50.57140625 40.7421875 51.3125 C41.984375 53.2578125 41.984375 53.2578125 41.984375 55.2578125 C38.04763856 53.94556702 35.75718206 52.33870923 32.984375 49.2578125 C33.479375 51.2378125 33.479375 51.2378125 33.984375 53.2578125 C33.324375 53.2578125 32.664375 53.2578125 31.984375 53.2578125 C31.81635449 51.79963453 31.65000357 50.3412641 31.484375 48.8828125 C31.3915625 48.07070312 31.29875 47.25859375 31.203125 46.421875 C30.984375 44.2578125 30.984375 44.2578125 30.984375 42.2578125 C30.324375 42.2578125 29.664375 42.2578125 28.984375 42.2578125 C28.654375 43.2478125 28.324375 44.2378125 27.984375 45.2578125 C25.921875 45.9453125 25.921875 45.9453125 23.984375 46.2578125 C23.85160156 46.82371094 23.71882813 47.38960937 23.58203125 47.97265625 C23.40542969 48.70613281 23.22882813 49.43960938 23.046875 50.1953125 C22.87285156 50.92621094 22.69882813 51.65710938 22.51953125 52.41015625 C21.984375 54.2578125 21.984375 54.2578125 20.984375 55.2578125 C17.36378268 55.55137404 15.10733538 55.10845569 11.984375 53.2578125 C11.71625 54.0209375 11.448125 54.7840625 11.171875 55.5703125 C10.03302995 58.14769868 9.17020829 59.52736114 6.984375 61.2578125 C6.324375 61.2578125 5.664375 61.2578125 4.984375 61.2578125 C4.984375 60.5978125 4.984375 59.9378125 4.984375 59.2578125 C5.644375 59.2578125 6.304375 59.2578125 6.984375 59.2578125 C8.93394899 55.1652544 9.25397767 51.83382777 9.234375 47.3203125 C9.23953125 46.13566406 9.2446875 44.95101562 9.25 43.73046875 C9.08754153 39.7574692 9.08754153 39.7574692 6.984375 34.2578125 C0.054375 33.7628125 0.054375 33.7628125 -7.015625 33.2578125 C-7.015625 32.5978125 -7.015625 31.9378125 -7.015625 31.2578125 C-6.025625 31.2578125 -5.035625 31.2578125 -4.015625 31.2578125 C-4.015625 30.5978125 -4.015625 29.9378125 -4.015625 29.2578125 C-4.655 29.0103125 -5.294375 28.7628125 -5.953125 28.5078125 C-8.015625 27.2578125 -8.015625 27.2578125 -8.765625 25.1328125 C-8.848125 24.5140625 -8.930625 23.8953125 -9.015625 23.2578125 C-9.675625 23.2578125 -10.335625 23.2578125 -11.015625 23.2578125 C-12.005625 20.6178125 -12.995625 17.9778125 -14.015625 15.2578125 C-13.46580584 21.30582321 -12.11132926 26.56382356 -10.015625 32.2578125 C-10.675625 32.2578125 -11.335625 32.2578125 -12.015625 32.2578125 C-12.015625 31.5978125 -12.015625 30.9378125 -12.015625 30.2578125 C-12.675625 30.2578125 -13.335625 30.2578125 -14.015625 30.2578125 C-14.015625 30.9178125 -14.015625 31.5778125 -14.015625 32.2578125 C-16.265625 32.5703125 -16.265625 32.5703125 -19.015625 32.2578125 C-21.77178225 29.50165525 -23.44006624 27.14283414 -24.015625 23.2578125 C-24.345625 25.8978125 -24.675625 28.5378125 -25.015625 31.2578125 C-26.005625 30.9278125 -26.995625 30.5978125 -28.015625 30.2578125 C-28.015625 28.9378125 -28.015625 27.6178125 -28.015625 26.2578125 C-28.675625 26.2578125 -29.335625 26.2578125 -30.015625 26.2578125 C-30.345625 28.2378125 -30.675625 30.2178125 -31.015625 32.2578125 C-28.045625 32.7528125 -28.045625 32.7528125 -25.015625 33.2578125 C-25.015625 33.5878125 -25.015625 33.9178125 -25.015625 34.2578125 C-25.78648438 34.31839844 -26.55734375 34.37898438 -27.3515625 34.44140625 C-28.35445312 34.52519531 -29.35734375 34.60898437 -30.390625 34.6953125 C-31.38835938 34.77652344 -32.38609375 34.85773437 -33.4140625 34.94140625 C-35.99490113 35.10746876 -35.99490113 35.10746876 -38.015625 36.2578125 C-40.02901259 46.50778566 -37.86259642 54.68511616 -34.015625 64.2578125 C-35.005625 64.2578125 -35.995625 64.2578125 -37.015625 64.2578125 C-42.015625 58.90897529 -42.015625 58.90897529 -42.015625 56.2578125 C-42.675625 56.2578125 -43.335625 56.2578125 -44.015625 56.2578125 C-44.015625 53.9478125 -44.015625 51.6378125 -44.015625 49.2578125 C-44.675625 49.2578125 -45.335625 49.2578125 -46.015625 49.2578125 C-46.139375 49.8971875 -46.263125 50.5365625 -46.390625 51.1953125 C-46.7 52.21625 -46.7 52.21625 -47.015625 53.2578125 C-48.005625 53.7528125 -48.005625 53.7528125 -49.015625 54.2578125 C-50.005625 53.2678125 -50.995625 52.2778125 -52.015625 51.2578125 C-53.005625 53.2378125 -53.995625 55.2178125 -55.015625 57.2578125 C-56.005625 57.2578125 -56.995625 57.2578125 -58.015625 57.2578125 C-59.005625 59.8978125 -59.995625 62.5378125 -61.015625 65.2578125 C-59.695625 65.2578125 -58.375625 65.2578125 -57.015625 65.2578125 C-57.345625 66.2478125 -57.675625 67.2378125 -58.015625 68.2578125 C-58.675625 67.9278125 -59.335625 67.5978125 -60.015625 67.2578125 C-60.015625 69.2378125 -60.015625 71.2178125 -60.015625 73.2578125 C-62.21032868 69.30734588 -63.015625 65.77017553 -63.015625 61.2578125 C-63.510625 62.2478125 -63.510625 62.2478125 -64.015625 63.2578125 C-64.675625 63.2578125 -65.335625 63.2578125 -66.015625 63.2578125 C-66.015625 64.2478125 -66.015625 65.2378125 -66.015625 66.2578125 C-66.675625 66.2578125 -67.335625 66.2578125 -68.015625 66.2578125 C-68.675625 67.9078125 -69.335625 69.5578125 -70.015625 71.2578125 C-71.015625 68.2578125 -71.015625 68.2578125 -69.87109375 65.69921875 C-69.04544922 64.27416016 -69.04544922 64.27416016 -68.203125 62.8203125 C-67.66042969 61.87285156 -67.11773437 60.92539063 -66.55859375 59.94921875 C-66.04941406 59.06105469 -65.54023437 58.17289063 -65.015625 57.2578125 C-64.33749686 55.93027175 -63.66574971 54.59928933 -63.015625 53.2578125 C-62.355625 53.2578125 -61.695625 53.2578125 -61.015625 53.2578125 C-60.9125 52.5978125 -60.809375 51.9378125 -60.703125 51.2578125 C-60.0220996 48.28606529 -59.01624154 45.56385508 -57.9140625 42.7265625 C-56.06407083 37.64310712 -54.57109896 32.43746182 -53.015625 27.2578125 C-52.355625 27.2578125 -51.695625 27.2578125 -51.015625 27.2578125 C-50.9125 26.4121875 -50.809375 25.5665625 -50.703125 24.6953125 C-49.47174322 18.53840359 -46.89307238 13.19274553 -43.015625 8.2578125 C-40.765625 7.3828125 -40.765625 7.3828125 -39.015625 7.2578125 C-39.015625 6.5978125 -39.015625 5.9378125 -39.015625 5.2578125 C-37.07421875 3.8203125 -37.07421875 3.8203125 -34.453125 2.2578125 C-33.60621094 1.7421875 -32.75929687 1.2265625 -31.88671875 0.6953125 C-22.35100874 -4.07902938 -9.59314944 -5.15721944 0 0 Z " fill="#2E2E36" transform="translate(89.015625,26.7421875)"/>
<path d="M0 0 C1.88391785 3.26545761 2.49287967 6.28111761 3 10 C3.66 10 4.32 10 5 10 C6.01866229 11.65532623 7.01810813 13.32260138 8 15 C8.66 15.33 9.32 15.66 10 16 C10 16.66 10 17.32 10 18 C9.01 18 8.02 18 7 18 C7 18.66 7 19.32 7 20 C11.62 20 16.24 20 21 20 C24.75897995 26.57821491 24.89731432 33.55756944 24 41 C22.6015625 43.9296875 22.6015625 43.9296875 21 46 C20.34 46 19.68 46 19 46 C19 46.66 19 47.32 19 48 C22.24299151 45.61042731 24.50902342 43.7952131 26 40 C28.96175123 40.61277612 30.38058783 41.25372522 33 43 C33 43.99 33 44.98 33 46 C32.34 46 31.68 46 31 46 C31 46.66 31 47.32 31 48 C30.34 48 29.68 48 29 48 C29 48.66 29 49.32 29 50 C26.03 50.495 26.03 50.495 23 51 C22.855625 51.78375 22.71125 52.5675 22.5625 53.375 C22 56 22 56 21 58 C20.34 58 19.68 58 19 58 C18.78601563 58.58265625 18.57203125 59.1653125 18.3515625 59.765625 C15.30497135 64.80218609 8.41476285 67.99008862 2.88671875 69.625 C-3.57156852 70.06753789 -10.44136926 66.97172951 -16 64 C-18.05902004 62.07443496 -19.68826966 60.10221336 -21.3828125 57.85546875 C-23.62905331 55.2782601 -26.12555937 54.22334563 -29.203125 52.8515625 C-31.76883377 51.63563965 -33.32119312 50.28317736 -35 48 C-35.9375 44.9375 -35.9375 44.9375 -36 42 C-34.625 40.3125 -34.625 40.3125 -33 39 C-32.67 38.01 -32.34 37.02 -32 36 C-31.34 36 -30.68 36 -30 36 C-30 38.31 -30 40.62 -30 43 C-29.34 43 -28.68 43 -28 43 C-27.731875 43.804375 -27.46375 44.60875 -27.1875 45.4375 C-26.795625 46.283125 -26.40375 47.12875 -26 48 C-25.01 48.33 -24.02 48.66 -23 49 C-23 49.66 -23 50.32 -23 51 C-22.01 50.505 -22.01 50.505 -21 50 C-21.27714844 49.40574219 -21.55429687 48.81148437 -21.83984375 48.19921875 C-25.10695891 40.72322214 -27.26355148 32.99651338 -25.1875 24.875 C-24 22 -24 22 -22 21 C-20.46331135 20.77532169 -18.92031946 20.59203195 -17.375 20.4375 C-16.55773437 20.35371094 -15.74046875 20.26992188 -14.8984375 20.18359375 C-14.27195312 20.12300781 -13.64546875 20.06242187 -13 20 C-14.32 19.67 -15.64 19.34 -17 19 C-16.67 17.02 -16.34 15.04 -16 13 C-15.34 13 -14.68 13 -14 13 C-13.34 14.32 -12.68 15.64 -12 17 C-11.34 14.03 -10.68 11.06 -10 8 C-9.67 8 -9.34 8 -9 8 C-8.54427083 10.01822917 -8.08854167 12.03645833 -7.6328125 14.0546875 C-7.09525572 16.20719964 -7.09525572 16.20719964 -5 18 C-2.42938689 18.64767793 -2.42938689 18.64767793 0 19 C0 18.34 0 17.68 0 17 C0.66 17 1.32 17 2 17 C2 17.66 2 18.32 2 19 C2.66 19 3.32 19 4 19 C3.72285156 18.443125 3.44570312 17.88625 3.16015625 17.3125 C0.69009509 12.10867007 -0.6965303 7.76592421 -1 2 C-0.67 1.34 -0.34 0.68 0 0 Z " fill="#F1B797" transform="translate(75,40)"/>
<path d="M0 0 C12.54 0.66 25.08 1.32 38 2 C38 2.33 38 2.66 38 3 C31.62641289 3.96205088 25.44070471 4.10655578 19 4 C19 4.66 19 5.32 19 6 C19.99 5.67 20.98 5.34 22 5 C24.73865287 4.92948886 27.45027588 4.90642235 30.1875 4.9375 C30.93708984 4.94201172 31.68667969 4.94652344 32.45898438 4.95117188 C34.30602383 4.96293646 36.15302213 4.98087135 38 5 C38 5.66 38 6.32 38 7 C38.66 7 39.32 7 40 7 C40 5.68 40 4.36 40 3 C40.99 3 41.98 3 43 3 C44.8649976 19.3478696 44.09755465 30.66403975 36 45 C34.77703936 47.29544076 33.56990879 49.59878408 32.36279297 51.90258789 C31.6071348 53.33149448 30.84010462 54.75447562 30.05908203 56.16967773 C27.5857408 60.67129313 25.71987875 65.15772234 24 70 C23.33933281 71.66905395 22.67561748 73.3369416 22 75 C21.01 75 20.02 75 19 75 C18.82984375 74.34515625 18.6596875 73.6903125 18.484375 73.015625 C16.82977008 66.78445329 14.92936449 60.70394281 12.76953125 54.62890625 C12 52 12 52 12 48 C11.34 48 10.68 48 10 48 C8.9840541 44.57734731 7.98679234 41.15088993 7.03125 37.7109375 C6.45179745 35.62578628 5.85879818 33.54391811 5.21875 31.4765625 C2.96766009 23.03497535 4.85668372 14.51135453 6 6 C0.06 6 -5.88 6 -12 6 C-12 5.34 -12 4.68 -12 4 C-12.66 3.67 -13.32 3.34 -14 3 C-9.38 2.67 -4.76 2.34 0 2 C0 2.66 0 3.32 0 4 C1.32 3.34 2.64 2.68 4 2 C2.68 1.34 1.36 0.68 0 0 Z " fill="#2A2E36" transform="translate(50,120)"/>
<path d="M0 0 C0.66 0 1.32 0 2 0 C2.5745952 3.73486879 3 7.21293268 3 11 C3.66 11 4.32 11 5 11 C4.67 9.68 4.34 8.36 4 7 C6.906521 8.3029232 8.80835408 9.70873381 11 12 C11.66 12.33 12.32 12.66 13 13 C13.33 12.34 13.66 11.68 14 11 C14.98280415 12.60194071 15.96111717 14.20663742 16.9375 15.8125 C17.48277344 16.70582031 18.02804688 17.59914063 18.58984375 18.51953125 C20.76762328 22.35025147 21.20767303 25.40243948 21.3125 29.75 C21.36857422 31.25820312 21.36857422 31.25820312 21.42578125 32.796875 C20.79467541 37.5446437 19.16291079 41.3384811 15.34545898 44.27099609 C13.45578743 45.3918221 11.54599163 46.36825716 9.5625 47.3125 C8.90701172 47.64572266 8.25152344 47.97894531 7.57617188 48.32226562 C5.73161745 49.2491681 3.87319422 50.13272666 2 51 C1.13890625 51.40347656 0.2778125 51.80695313 -0.609375 52.22265625 C-3.45766245 53.14881508 -5.82481452 53.19699242 -8.8125 53.125 C-9.78832031 53.10695312 -10.76414062 53.08890625 -11.76953125 53.0703125 C-12.87361328 53.03550781 -12.87361328 53.03550781 -14 53 C-14 53.66 -14 54.32 -14 55 C-16.97 55 -19.94 55 -23 55 C-23 54.34 -23 53.68 -23 53 C-23.66 52.67 -24.32 52.34 -25 52 C-25.02894547 48.54168414 -25.04678 45.08339928 -25.0625 41.625 C-25.07087891 40.64015625 -25.07925781 39.6553125 -25.08789062 38.640625 C-25.09111328 37.69960937 -25.09433594 36.75859375 -25.09765625 35.7890625 C-25.10289307 34.91975098 -25.10812988 34.05043945 -25.11352539 33.15478516 C-25 31 -25 31 -24 29 C-23.34 29 -22.68 29 -22 29 C-21.01 25.535 -21.01 25.535 -20 22 C-18.02 21.67 -16.04 21.34 -14 21 C-14 20.34 -14 19.68 -14 19 C-13.34 19 -12.68 19 -12 19 C-12 18.34 -12 17.68 -12 17 C-11.34 17 -10.68 17 -10 17 C-10 16.01 -10 15.02 -10 14 C-10.66 13.67 -11.32 13.34 -12 13 C-11.3709375 12.9278125 -10.741875 12.855625 -10.09375 12.78125 C-9.4028125 12.5234375 -8.711875 12.265625 -8 12 C-7.00800997 9.94270846 -7.00800997 9.94270846 -6.5 7.5 C-5.90625 5.03125 -5.90625 5.03125 -5 3 C-2.96875 2.34375 -2.96875 2.34375 -1 2 C-0.67 1.34 -0.34 0.68 0 0 Z " fill="#2C2F36" transform="translate(118,69)"/>
<path d="M0 0 C0.99 1.32 1.98 2.64 3 4 C0.525 3.505 0.525 3.505 -2 3 C-2 5.97 -2 8.94 -2 12 C-1.34 12.33 -0.68 12.66 0 13 C-0.66 13 -1.32 13 -2 13 C-2 14.98 -2 16.96 -2 19 C-0.02 19.33 1.96 19.66 4 20 C3 23 3 23 -1 27 C3.95 27.33 8.9 27.66 14 28 C14 27.34 14 26.68 14 26 C16.64 25.34 19.28 24.68 22 24 C22 25.32 22 26.64 22 28 C22.66 28.33 23.32 28.66 24 29 C24 29.66 24 30.32 24 31 C23.34 31 22.68 31 22 31 C22.495 33.475 22.495 33.475 23 36 C17.49550842 39.56772602 12.72333985 42.39261029 6 41 C-1.92088679 38.85496482 -7.40781597 36.45167061 -12.3828125 29.85546875 C-14.62905331 27.2782601 -17.12555937 26.22334563 -20.203125 24.8515625 C-22.76883377 23.63563965 -24.32119312 22.28317736 -26 20 C-26.9375 16.9375 -26.9375 16.9375 -27 14 C-25.625 12.3125 -25.625 12.3125 -24 11 C-23.67 10.01 -23.34 9.02 -23 8 C-22.34 8 -21.68 8 -21 8 C-21 10.31 -21 12.62 -21 15 C-20.34 15 -19.68 15 -19 15 C-18.731875 15.804375 -18.46375 16.60875 -18.1875 17.4375 C-17.795625 18.283125 -17.40375 19.12875 -17 20 C-16.01 20.33 -15.02 20.66 -14 21 C-14 21.66 -14 22.32 -14 23 C-13.34 22.67 -12.68 22.34 -12 22 C-12.33773437 21.48953125 -12.67546875 20.9790625 -13.0234375 20.453125 C-14.37555288 17.05661117 -13.9601769 14.36991048 -13.625 10.75 C-13.51414062 9.48671875 -13.40328125 8.2234375 -13.2890625 6.921875 C-13.14597656 5.47554688 -13.14597656 5.47554688 -13 4 C-8.545 3.505 -8.545 3.505 -4 3 C-4 2.34 -4 1.68 -4 1 C-2.68 1.33 -1.36 1.66 0 2 C0 1.34 0 0.68 0 0 Z M-2 21 C-1 23 -1 23 -1 23 Z " fill="#EEB697" transform="translate(66,68)"/>
<path d="M0 0 C0 0.99 0 1.98 0 3 C0.66 3.33 1.32 3.66 2 4 C2 4.66 2 5.32 2 6 C1.34 6 0.68 6 0 6 C0.33 7.65 0.66 9.3 1 11 C-4.48245028 14.55344 -9.28035796 17.37110343 -16 16 C-19.46011491 14.91871409 -22.79857174 13.70992465 -26 12 C-26.33 11.34 -26.66 10.68 -27 10 C-26.01 10 -25.02 10 -24 10 C-24.20625 9.4225 -24.4125 8.845 -24.625 8.25 C-25 6 -25 6 -23 2 C-18.05 2.33 -13.1 2.66 -8 3 C-8 2.34 -8 1.68 -8 1 C-2.25 -1.125 -2.25 -1.125 0 0 Z " fill="#F4BEA1" transform="translate(88,93)"/>
<path d="M0 0 C0 4.95 0 9.9 0 15 C-9.5479847 17.24658463 -19.32945897 18.14900912 -29 16 C-29.33 15.34 -29.66 14.68 -30 14 C-29.01 14 -28.02 14 -27 14 C-27.495 13.608125 -27.99 13.21625 -28.5 12.8125 C-30.45593143 10.44908285 -30.24207973 8.98564997 -30 6 C-29.175 6.680625 -28.35 7.36125 -27.5 8.0625 C-24.38214721 10.09493208 -21.9605817 10.4407997 -18.21875 9.75 C-12.92654298 7.96108495 -8.20703598 4.7227583 -3.828125 1.3046875 C-2 0 -2 0 0 0 Z " fill="#D8BDA7" transform="translate(90,105)"/>
<path d="M0 0 C2.96175123 0.61277612 4.38058783 1.25372522 7 3 C7 3.99 7 4.98 7 6 C6.34 6 5.68 6 5 6 C5 6.66 5 7.32 5 8 C4.34 8 3.68 8 3 8 C3 8.66 3 9.32 3 10 C1.02 10.33 -0.96 10.66 -3 11 C-3.144375 11.78375 -3.28875 12.5675 -3.4375 13.375 C-4 16 -4 16 -5 18 C-5.66 18 -6.32 18 -7 18 C-7.268125 18.639375 -7.53625 19.27875 -7.8125 19.9375 C-9 22 -9 22 -12 23 C-12.33 21.68 -12.66 20.36 -13 19 C-12.34 19 -11.68 19 -11 19 C-11 18.34 -11 17.68 -11 17 C-11.99 16.67 -12.98 16.34 -14 16 C-13.67 14.35 -13.34 12.7 -13 11 C-13.66 10.67 -14.32 10.34 -15 10 C-14.34 9.34 -13.68 8.68 -13 8 C-12.28591666 6.01643517 -11.61382258 4.01684563 -11 2 C-9.35 1.67 -7.7 1.34 -6 1 C-5.34 1.99 -4.68 2.98 -4 4 C-4.33 4.66 -4.66 5.32 -5 6 C-5.66 6 -6.32 6 -7 6 C-7 6.66 -7 7.32 -7 8 C-3.75700849 5.61042731 -1.49097658 3.7952131 0 0 Z " fill="#EAB193" transform="translate(101,80)"/>
<path d="M0 0 C1.88391785 3.26545761 2.49287967 6.28111761 3 10 C3.66 10 4.32 10 5 10 C6.01866229 11.65532623 7.01810813 13.32260138 8 15 C8.66 15.33 9.32 15.66 10 16 C10 16.66 10 17.32 10 18 C9.01 18 8.02 18 7 18 C7 18.66 7 19.32 7 20 C11.62 20 16.24 20 21 20 C21 20.33 21 20.66 21 21 C19.80761719 20.98839844 18.61523438 20.97679688 17.38671875 20.96484375 C15.82031406 20.95546408 14.25390769 20.94636407 12.6875 20.9375 C11.90181641 20.92912109 11.11613281 20.92074219 10.30664062 20.91210938 C9.1706543 20.90727539 9.1706543 20.90727539 8.01171875 20.90234375 C7.31522217 20.89710693 6.61872559 20.89187012 5.90112305 20.88647461 C3.77502032 20.93104009 3.77502032 20.93104009 1 22 C-2.1875 21.0625 -2.1875 21.0625 -5 20 C-5 20.66 -5 21.32 -5 22 C-10.76926889 23.40333568 -16.18143105 22.67296616 -22 22 C-22 21.67 -22 21.34 -22 21 C-19.03 20.67 -16.06 20.34 -13 20 C-14.32 19.67 -15.64 19.34 -17 19 C-16.67 17.02 -16.34 15.04 -16 13 C-15.34 13 -14.68 13 -14 13 C-13.34 14.32 -12.68 15.64 -12 17 C-11.34 14.03 -10.68 11.06 -10 8 C-9.67 8 -9.34 8 -9 8 C-8.54427083 10.01822917 -8.08854167 12.03645833 -7.6328125 14.0546875 C-7.09525572 16.20719964 -7.09525572 16.20719964 -5 18 C-2.42938689 18.64767793 -2.42938689 18.64767793 0 19 C0 18.34 0 17.68 0 17 C0.66 17 1.32 17 2 17 C2 17.66 2 18.32 2 19 C2.66 19 3.32 19 4 19 C3.72285156 18.443125 3.44570312 17.88625 3.16015625 17.3125 C0.69009509 12.10867007 -0.6965303 7.76592421 -1 2 C-0.67 1.34 -0.34 0.68 0 0 Z " fill="#C4A293" transform="translate(75,40)"/>
<path d="M0 0 C1.65 0.33 3.3 0.66 5 1 C5 1.66 5 2.32 5 3 C4.01 3 3.02 3 2 3 C2 3.66 2 4.32 2 5 C2.99 4.67 3.98 4.34 5 4 C5 4.66 5 5.32 5 6 C2.36 6.33 -0.28 6.66 -3 7 C-2.67 7.66 -2.34 8.32 -2 9 C0.57951874 9.69093896 0.57951874 9.69093896 3.5625 10.125 C4.57441406 10.29257813 5.58632812 10.46015625 6.62890625 10.6328125 C7.80259766 10.81457031 7.80259766 10.81457031 9 11 C9 11.99 9 12.98 9 14 C7.68 14 6.36 14 5 14 C5 14.66 5 15.32 5 16 C3.06257659 16.02703381 1.12504521 16.04641125 -0.8125 16.0625 C-1.89144531 16.07410156 -2.97039062 16.08570312 -4.08203125 16.09765625 C-7 16 -7 16 -10 15 C-8.70700306 12.11562221 -7.34058637 10.12780579 -5 8 C-6.65 8.33 -8.3 8.66 -10 9 C-10.33 7.02 -10.66 5.04 -11 3 C-7.77208445 0.8480563 -6.71599191 0.79913557 -3 1 C-3 1.66 -3 2.32 -3 3 C-2.01 3.33 -1.02 3.66 0 4 C0 2.68 0 1.36 0 0 Z " fill="#E2AD89" transform="translate(75,80)"/>
<path d="M0 0 C1.14475827 2.86189569 0.97505136 4.08233051 0.0625 7.09375 C-1.22139832 11.35395808 -1.44296548 15.51178577 -1.625 19.9375 C-1.68300781 21.10635742 -1.68300781 21.10635742 -1.7421875 22.29882812 C-1.83544127 24.19887379 -1.91875962 26.09940278 -2 28 C-5.4375 27.1875 -5.4375 27.1875 -9 26 C-10.04976964 22.85069107 -10.10131595 20.61185544 -10.0625 17.3125 C-10.05347656 16.31863281 -10.04445313 15.32476562 -10.03515625 14.30078125 C-10.02355469 13.54152344 -10.01195312 12.78226563 -10 12 C-9.01 11.67 -8.02 11.34 -7 11 C-5.78130071 8.49552484 -5.78130071 8.49552484 -5 6 C-4.34 6 -3.68 6 -3 6 C-3 5.01 -3 4.02 -3 3 C-2.34 3 -1.68 3 -1 3 C-0.67 2.01 -0.34 1.02 0 0 Z " fill="#CDCECC" transform="translate(26,87)"/>
<path d="M0 0 C0.66 0 1.32 0 2 0 C2 2.31 2 4.62 2 7 C2.66 7 3.32 7 4 7 C4.268125 7.804375 4.53625 8.60875 4.8125 9.4375 C5.204375 10.283125 5.59625 11.12875 6 12 C6.99 12.33 7.98 12.66 9 13 C9 13.66 9 14.32 9 15 C10.32 14.01 11.64 13.02 13 12 C13 12.66 13 13.32 13 14 C13.99 14.33 14.98 14.66 16 15 C16 15.66 16 16.32 16 17 C16.66 17 17.32 17 18 17 C18 17.66 18 18.32 18 19 C11.43954976 21.50489918 11.43954976 21.50489918 7.60546875 20.16015625 C2.45893014 17.35217747 -2.15475472 14.76113457 -3.9375 8.9375 C-4 6 -4 6 -2.625 4.3125 C-2.08875 3.879375 -1.5525 3.44625 -1 3 C-0.67 2.01 -0.34 1.02 0 0 Z " fill="#CAA697" transform="translate(43,76)"/>
<path d="M0 0 C0.66 0 1.32 0 2 0 C2.1875 2.875 2.1875 2.875 2 6 C1.01 6.66 0.02 7.32 -1 8 C-1.66 7.67 -2.32 7.34 -3 7 C-3.625 4.9375 -3.625 4.9375 -4 3 C-3.01 2.67 -2.02 2.34 -1 2 C-0.67 1.34 -0.34 0.68 0 0 Z M-12 2 C-11.01 2.33 -10.02 2.66 -9 3 C-9 4.65 -9 6.3 -9 8 C-8.67 6.02 -8.34 4.04 -8 2 C-7.01 2 -6.02 2 -5 2 C-4 5 -4 5 -5.4375 8.1875 C-6.2109375 9.5796875 -6.2109375 9.5796875 -7 11 C-7.99 11 -8.98 11 -10 11 C-10.99 13.64 -11.98 16.28 -13 19 C-11.68 19 -10.36 19 -9 19 C-9.33 19.99 -9.66 20.98 -10 22 C-10.66 21.67 -11.32 21.34 -12 21 C-12 22.98 -12 24.96 -12 27 C-14.19470368 23.04953338 -15 19.51236303 -15 15 C-15.33 15.66 -15.66 16.32 -16 17 C-16.66 17 -17.32 17 -18 17 C-18 17.99 -18 18.98 -18 20 C-18.66 20 -19.32 20 -20 20 C-20.99 22.475 -20.99 22.475 -22 25 C-23 22 -23 22 -21.85546875 19.44140625 C-21.30503906 18.49136719 -20.75460938 17.54132813 -20.1875 16.5625 C-19.64480469 15.61503906 -19.10210938 14.66757813 -18.54296875 13.69140625 C-18.03378906 12.80324219 -17.52460938 11.91507813 -17 11 C-16.32187186 9.67245925 -15.65012471 8.34147683 -15 7 C-14.34 7 -13.68 7 -13 7 C-12.67 5.35 -12.34 3.7 -12 2 Z " fill="#322F33" transform="translate(41,73)"/>
<path d="M0 0 C2.08229108 3.12343663 2.23770457 3.53852922 1.9765625 7.01171875 C1.925 7.76904297 1.8734375 8.52636719 1.8203125 9.30664062 C1.75585938 10.09232422 1.69140625 10.87800781 1.625 11.6875 C1.56828125 12.48478516 1.5115625 13.28207031 1.453125 14.10351562 C1.31183972 16.06973581 1.15720094 18.03498824 1 20 C3.31 20 5.62 20 8 20 C8 20.33 8 20.66 8 21 C6.35 21 4.7 21 3 21 C3 21.66 3 22.32 3 23 C1.35 22.67 -0.3 22.34 -2 22 C-2 23.32 -2 24.64 -2 26 C-2.66 26 -3.32 26 -4 26 C-4 25.34 -4 24.68 -4 24 C-13.405 24.495 -13.405 24.495 -23 25 C-23 24.34 -23 23.68 -23 23 C-19.37 22.67 -15.74 22.34 -12 22 C-12 21.34 -12 20.68 -12 20 C-8.7 19.67 -5.4 19.34 -2 19 C-2 14.05 -2 9.1 -2 4 C-3.5675 5.010625 -5.135 6.02125 -6.75 7.0625 C-9.421875 8.78515625 -9.421875 8.78515625 -12 10 C-13.32 9.67 -14.64 9.34 -16 9 C-10.72 6.03 -5.44 3.06 0 0 Z " fill="#403536" transform="translate(92,101)"/>
<path d="M0 0 C2.475 0.99 2.475 0.99 5 2 C5 2.66 5 3.32 5 4 C5.99 4.33 6.98 4.66 8 5 C11.27774246 9.16297218 13.74726157 13.3712412 14.5625 18.625 C13.66026781 24.03839311 12.8393733 28.51952881 8.4375 32.0625 C7.633125 32.371875 6.82875 32.68125 6 33 C5.34 32.67 4.68 32.34 4 32 C4.7115625 31.1028125 4.7115625 31.1028125 5.4375 30.1875 C8.73190198 25.57533723 8.81884546 20.45396148 8 15 C6.33235592 11.11054088 4.21736988 7.59604545 2 4 C1.31731862 2.67479497 0.64406078 1.34439872 0 0 Z " fill="#ECEBE7" transform="translate(124,79)"/>
<path d="M0 0 C1.32 0 2.64 0 4 0 C3.125 3.875 3.125 3.875 2 5 C0.00041636 5.04080783 -2.00045254 5.04254356 -4 5 C-3.01 4.67 -2.02 4.34 -1 4 C-0.26676204 1.98491642 -0.26676204 1.98491642 0 0 Z M8 0 C8.09765625 6.15234375 8.09765625 6.15234375 8 8 C4.53376343 11.46623657 -5.69326882 10.1653186 -10.265625 10.23046875 C-13.02536348 9.99786222 -14.64932775 9.41600019 -17 8 C-15.9275 7.87625 -14.855 7.7525 -13.75 7.625 C-10.57618837 7.09603139 -8.73415587 6.51897548 -6 5 C-5.34 5 -4.68 5 -4 5 C-3.67 5.66 -3.34 6.32 -3 7 C-0.97536745 7.65213292 -0.97536745 7.65213292 1 8 C1.2475 7.4225 1.495 6.845 1.75 6.25 C5.22222222 0 5.22222222 0 8 0 Z " fill="#E4C3AA" transform="translate(81,112)"/>
<path d="M0 0 C0.66 0.33 1.32 0.66 2 1 C2 1.66 2 2.32 2 3 C1.34 3 0.68 3 0 3 C0 3.66 0 4.32 0 5 C0.66 4.67 1.32 4.34 2 4 C6.94269981 3.7569164 10.49009758 3.74504879 15 6 C15 6.66 15 7.32 15 8 C13.68 7.67 12.36 7.34 11 7 C11 7.66 11 8.32 11 9 C6.545 9.495 6.545 9.495 2 10 C2.04125 11.27875 2.0825 12.5575 2.125 13.875 C2.1953125 16.0546875 2.1953125 16.0546875 2 18 C1.34 18.66 0.68 19.32 0 20 C-2.48475471 15.03049057 -2.5996346 8.09504709 -1.0625 2.8125 C-0.711875 1.884375 -0.36125 0.95625 0 0 Z " fill="#C0A298" transform="translate(51,62)"/>
<path d="M0 0 C0 0.66 0 1.32 0 2 C0.86882812 2.03738281 1.73765625 2.07476563 2.6328125 2.11328125 C14.07908612 2.76625659 14.07908612 2.76625659 19 6 C16 7 16 7 13 6 C10.77181559 5.93062938 8.54165476 5.91542916 6.3125 5.9375 C5.13300781 5.94652344 3.95351562 5.95554687 2.73828125 5.96484375 C1.83464844 5.97644531 0.93101563 5.98804688 0 6 C0 6.33 0 6.66 0 7 C-4.87664009 7.34833144 -7.77050005 6.41685712 -12 4 C-12 3.34 -12 2.68 -12 2 C-7.8794254 0.00214565 -4.54805635 -0.17835515 0 0 Z " fill="#21252C" transform="translate(70,25)"/>
<path d="M0 0 C0.33 0.66 0.66 1.32 1 2 C-1.70879335 3.35439668 -4.00933268 3.06501451 -7 3 C-7 3.66 -7 4.32 -7 5 C-15.415 5.495 -15.415 5.495 -24 6 C-23 4 -23 4 -22 3 C-22.99 3 -23.98 3 -25 3 C-25.33 3.99 -25.66 4.98 -26 6 C-26 4.68 -26 3.36 -26 2 C-22.37 2 -18.74 2 -15 2 C-15 1.34 -15 0.68 -15 0 C-13.25093341 -0.19601608 -11.50068154 -0.38147403 -9.75 -0.5625 C-8.77546875 -0.66691406 -7.8009375 -0.77132812 -6.796875 -0.87890625 C-4.21340534 -0.99076038 -2.40387135 -0.92074889 0 0 Z " fill="#EFEDE5" transform="translate(119,122)"/>
<path d="M0 0 C0.66 0.66 1.32 1.32 2 2 C2.33 1.34 2.66 0.68 3 0 C3.66 0 4.32 0 5 0 C6.25 6.625 6.25 6.625 4 10 C3.34 10 2.68 10 2 10 C2 12.97 2 15.94 2 19 C1.01 19 0.02 19 -1 19 C-2.91811433 17.08188567 -2.17438668 13.73410709 -2.1875 11.1875 C-2.20167969 9.94355469 -2.21585938 8.69960937 -2.23046875 7.41796875 C-2.01852668 4.27476006 -1.66475807 2.61228836 0 0 Z " fill="#26252E" transform="translate(26,94)"/>
<path d="M0 0 C0.33 0 0.66 0 1 0 C1.66 4.29 2.32 8.58 3 13 C1.35 13.66 -0.3 14.32 -2 15 C-2 14.34 -2 13.68 -2 13 C-2.99 13 -3.98 13 -5 13 C-5 15.64 -5 18.28 -5 21 C-6.6585044 18.01469208 -7.75527996 15.42608053 -8 12 C-6.75 8.75 -6.75 8.75 -5 6 C-4.01 5.67 -3.02 5.34 -2 5 C-0.78130071 2.49552484 -0.78130071 2.49552484 0 0 Z " fill="#29262E" transform="translate(38,62)"/>
<path d="M0 0 C0 4.95 0 9.9 0 15 C-0.33 15 -0.66 15 -1 15 C-1.33 12.69 -1.66 10.38 -2 8 C-2.99 8.66 -3.98 9.32 -5 10 C-5 9.01 -5 8.02 -5 7 C-7.64 7.33 -10.28 7.66 -13 8 C-10.83676753 5.68757908 -8.62352196 3.9843604 -5.9375 2.3125 C-5.24527344 1.87550781 -4.55304688 1.43851562 -3.83984375 0.98828125 C-2 0 -2 0 0 0 Z M-13 12 C-11.02 12 -9.04 12 -7 12 C-7.33 12.99 -7.66 13.98 -8 15 C-10.64 15 -13.28 15 -16 15 C-15.01 14.67 -14.02 14.34 -13 14 C-13 13.34 -13 12.68 -13 12 Z " fill="#D6B6A1" transform="translate(90,105)"/>
<path d="M0 0 C1.79206547 0.14084796 3.58364917 0.28783701 5.375 0.4375 C6.87160156 0.55931641 6.87160156 0.55931641 8.3984375 0.68359375 C11 1 11 1 13 2 C13 4.97 13 7.94 13 11 C12.01 11.495 12.01 11.495 11 12 C10.95101562 11.36191406 10.90203125 10.72382813 10.8515625 10.06640625 C10.77679688 9.24011719 10.70203125 8.41382813 10.625 7.5625 C10.55539063 6.73878906 10.48578125 5.91507812 10.4140625 5.06640625 C10.27742188 4.38449219 10.14078125 3.70257813 10 3 C9.34 2.67 8.68 2.34 8 2 C8.33 2.66 8.66 3.32 9 4 C9.04022391 6.3329866 9.04320247 8.66706666 9 11 C8.67 11 8.34 11 8 11 C7.67 9.35 7.34 7.7 7 6 C6.43490723 5.98018066 5.86981445 5.96036133 5.28759766 5.93994141 C2.73292003 5.84481764 0.17907459 5.73508942 -2.375 5.625 C-3.26445313 5.5940625 -4.15390625 5.563125 -5.0703125 5.53125 C-5.92109375 5.49257812 -6.771875 5.45390625 -7.6484375 5.4140625 C-8.43395996 5.3826416 -9.21948242 5.3512207 -10.02880859 5.31884766 C-12 5 -12 5 -14 3 C-9.38 2.67 -4.76 2.34 0 2 C0 2.66 0 3.32 0 4 C1.32 3.34 2.64 2.68 4 2 C2.68 1.34 1.36 0.68 0 0 Z " fill="#1F2123" transform="translate(50,120)"/>
<path d="M0 0 C4.54075781 4.14010271 7.71842138 8.82390176 11 14 C10.67 14.66 10.34 15.32 10 16 C9.34 15.67 8.68 15.34 8 15 C7.67 15.99 7.34 16.98 7 18 C6.896875 17.38125 6.79375 16.7625 6.6875 16.125 C6.12474627 13.63473516 6.12474627 13.63473516 3 12 C2.67 11.01 2.34 10.02 2 9 C1.01 8.67 0.02 8.34 -1 8 C-1.04241723 5.66705225 -1.04092937 3.33297433 -1 1 C-0.67 0.67 -0.34 0.34 0 0 Z " fill="#35343C" transform="translate(98,34)"/>
<path d="M0 0 C1.88391785 3.26545761 2.49287967 6.28111761 3 10 C3.66 10 4.32 10 5 10 C6.01866229 11.65532623 7.01810813 13.32260138 8 15 C8.66 15.33 9.32 15.66 10 16 C10 16.66 10 17.32 10 18 C7.6875 18.6875 7.6875 18.6875 5 19 C0.86638796 15.87130116 -0.04116523 10.86967267 -1 6 C-0.6875 2.375 -0.6875 2.375 0 0 Z " fill="#E0BDB7" transform="translate(75,40)"/>
<path d="M0 0 C0 2.64 0 5.28 0 8 C-1.65 8.33 -3.3 8.66 -5 9 C-6.98 6.69 -8.96 4.38 -11 2 C-2.25 0 -2.25 0 0 0 Z " fill="#E3BFA4" transform="translate(64,95)"/>
<path d="M0 0 C0.66 0 1.32 0 2 0 C2.0825 1.258125 2.165 2.51625 2.25 3.8125 C2.86302038 9.55842241 4.8572831 14.66812307 7 20 C6.01 20 5.02 20 4 20 C0.55813601 16.47618687 -1.55443866 14.04969516 -2 9 C-1.67 9 -1.34 9 -1 9 C-0.67 6.03 -0.34 3.06 0 0 Z " fill="#583526" transform="translate(48,71)"/>
<path d="M0 0 C0.05418326 2.08304538 0.09287551 4.16649768 0.125 6.25 C0.14820312 7.41015625 0.17140625 8.5703125 0.1953125 9.765625 C0 13 0 13 -2 17 C-2 12.05 -2 7.1 -2 2 C-3.5675 3.010625 -5.135 4.02125 -6.75 5.0625 C-11.42692308 8.07788462 -11.42692308 8.07788462 -14.328125 7.68359375 C-15.15570313 7.34521484 -15.15570313 7.34521484 -16 7 C-13.89983377 5.82558465 -11.79541245 4.66035988 -9.6875 3.5 C-9.09259766 3.16613281 -8.49769531 2.83226563 -7.88476562 2.48828125 C-5.04171156 0.93174886 -3.29339012 0 0 0 Z " fill="#332119" transform="translate(92,103)"/>
<path d="M0 0 C0.66 0 1.32 0 2 0 C-0.89066059 12.66970387 -0.89066059 12.66970387 -4 18 C-4.66 18 -5.32 18 -6 18 C-6.33 18.99 -6.66 19.98 -7 21 C-6.63223832 14.69732561 -5.83374078 9.66748157 -3 4 C-2.34 4 -1.68 4 -1 4 C-0.67 2.68 -0.34 1.36 0 0 Z " fill="#D8D0CC" transform="translate(32,62)"/>
<path d="M0 0 C0 0.99 0 1.98 0 3 C-0.99 3.33 -1.98 3.66 -3 4 C-3 3.34 -3 2.68 -3 2 C-3.99 2 -4.98 2 -6 2 C-6 2.66 -6 3.32 -6 4 C-9.3 4 -12.6 4 -16 4 C-15 1 -15 1 -12.875 -0.1875 C-8.37109837 -1.46034176 -4.43880525 -1.47960175 0 0 Z " fill="#57432E" transform="translate(96,65)"/>
<path d="M0 0 C6.11424656 6.98771035 8.69105096 12.78169976 8.40625 22.14453125 C7.82339873 26.24130316 6.41755824 28.67585742 4 32 C3.34 31.01 2.68 30.02 2 29 C2.66 29 3.32 29 4 29 C6.67113162 20.16053651 6.67113162 20.16053651 4.7265625 11.41015625 C2.71416457 7.98907976 0.8140416 4.8140416 -2 2 C-1.34 2 -0.68 2 0 2 C0 1.34 0 0.68 0 0 Z " fill="#868578" transform="translate(131,80)"/>
<path d="M0 0 C0.66 0.99 1.32 1.98 2 3 C2.33 2.34 2.66 1.68 3 1 C3.99 1.33 4.98 1.66 6 2 C5.67 3.98 5.34 5.96 5 8 C4.01 8 3.02 8 2 8 C1.5978125 9.1446875 1.5978125 9.1446875 1.1875 10.3125 C0.04865495 12.88988618 -0.81416671 14.26954864 -3 16 C-3.66 16 -4.32 16 -5 16 C-5 15.34 -5 14.68 -5 14 C-4.34 14 -3.68 14 -3 14 C-0.79600832 9.44508386 -0.41153737 4.97093824 0 0 Z " fill="#543737" transform="translate(99,72)"/>
<path d="M0 0 C1.8125 0.125 1.8125 0.125 4 1 C5.75 4.0625 5.75 4.0625 7 7 C5.875 8.5625 5.875 8.5625 4 10 C0.8125 9.6875 0.8125 9.6875 -2 9 C-1.51421457 5.87709365 -1.0013988 3.00419641 0 0 Z " fill="#2B2F4E" transform="translate(30,83)"/>
<path d="M0 0 C0.33 0.99 0.66 1.98 1 3 C1.66 3.33 2.32 3.66 3 4 C1.68 6.97 0.36 9.94 -1 13 C-1.99 13 -2.98 13 -4 13 C-4.66 9.37 -5.32 5.74 -6 2 C-5.34 2 -4.68 2 -4 2 C-3.67 2.66 -3.34 3.32 -3 4 C-2.34 4 -1.68 4 -1 4 C-0.67 2.68 -0.34 1.36 0 0 Z " fill="#585755" transform="translate(73,182)"/>
<path d="M0 0 C2.50828536 1.90354807 3.00135005 3.00579726 3.73046875 6.13671875 C3.88128906 7.30847656 4.03210938 8.48023437 4.1875 9.6875 C4.34605469 10.86699219 4.50460938 12.04648438 4.66796875 13.26171875 C4.77753906 14.16535156 4.88710938 15.06898437 5 16 C2.57803945 15.03121578 1.23985943 14.35487089 -0.23828125 12.16796875 C-1.08865862 9.74766393 -1.23403175 7.87174618 -1.1875 5.3125 C-1.18105469 4.52488281 -1.17460937 3.73726563 -1.16796875 2.92578125 C-1 1 -1 1 0 0 Z " fill="#F4F4ED" transform="translate(19,99)"/>
<path d="M0 0 C0.99 0.33 1.98 0.66 3 1 C4.66621616 1.03874921 6.33394172 1.0450286 8 1 C7.01 1.33 6.02 1.66 5 2 C5 2.66 5 3.32 5 4 C5.66 4 6.32 4 7 4 C7 4.66 7 5.32 7 6 C6.34 6 5.68 6 5 6 C5 6.66 5 7.32 5 8 C0.61537866 7.49890042 -1.8000997 6.01704885 -5 3 C-5 2.34 -5 1.68 -5 1 C-2.525 1.99 -2.525 1.99 0 3 C0 2.01 0 1.02 0 0 Z " fill="#383837" transform="translate(24,112)"/>
<path d="M0 0 C3.05675241 4.58512862 3.11219208 7.77106324 3.0625 13.1875 C3.05347656 14.45980469 3.04445313 15.73210937 3.03515625 17.04296875 C3.02355469 18.01878906 3.01195313 18.99460937 3 20 C2.67 20 2.34 20 2 20 C2 16.7 2 13.4 2 10 C-2.29 9.67 -6.58 9.34 -11 9 C-11 8.67 -11 8.34 -11 8 C-9.35 8 -7.7 8 -6 8 C-6 7.34 -6 6.68 -6 6 C-3.03 6.495 -3.03 6.495 0 7 C-0.185625 6.401875 -0.37125 5.80375 -0.5625 5.1875 C-1 3 -1 3 0 0 Z " fill="#BA8F83" transform="translate(96,61)"/>
<path d="M0 0 C0.33 0.66 0.66 1.32 1 2 C1.99 2.33 2.98 2.66 4 3 C4 3.66 4 4.32 4 5 C4.66 5 5.32 5 6 5 C6 5.66 6 6.32 6 7 C-1.13846154 9.33846154 -1.13846154 9.33846154 -5.5 7.625 C-6.325 7.08875 -7.15 6.5525 -8 6 C-7.34 5.67 -6.68 5.34 -6 5 C-6 4.34 -6 3.68 -6 3 C-4 4 -2 5 0 6 C0 5.34 0 4.68 0 4 C-0.66 3.67 -1.32 3.34 -2 3 C-1.34 2.01 -0.68 1.02 0 0 Z " fill="#CDA38B" transform="translate(55,88)"/>
<path d="M0 0 C4.92127034 -0.16682272 8.50343896 -0.24828052 13 2 C13 2.66 13 3.32 13 4 C11.68 3.67 10.36 3.34 9 3 C9 3.66 9 4.32 9 5 C7.02 5 5.04 5 3 5 C3 4.34 3 3.68 3 3 C1.35 3.33 -0.3 3.66 -2 4 C-1.34 2.68 -0.68 1.36 0 0 Z " fill="#593526" transform="translate(53,66)"/>
<path d="M0 0 C0.66 0 1.32 0 2 0 C2 0.99 2 1.98 2 3 C0.68 3 -0.64 3 -2 3 C-2 3.66 -2 4.32 -2 5 C-5.96 5 -9.92 5 -14 5 C-13.67 4.01 -13.34 3.02 -13 2 C-9.98509443 0.99503148 -7.95818308 0.89664697 -4.8125 0.9375 C-3.91144531 0.94652344 -3.01039062 0.95554687 -2.08203125 0.96484375 C-1.39496094 0.97644531 -0.70789063 0.98804687 0 1 C0 0.67 0 0.34 0 0 Z " fill="#F2AA8E" transform="translate(82,91)"/>
<path d="M0 0 C2.86001033 1.28207359 5.07039412 2.49151236 7 5 C7 9 7 9 6 11 C5.01 11 4.02 11 3 11 C3 10.34 3 9.68 3 9 C2.34 9 1.68 9 1 9 C-1.125 2.25 -1.125 2.25 0 0 Z " fill="#EAE4DF" transform="translate(112,49)"/>
<path d="M0 0 C2.5 1.375 2.5 1.375 5 3 C5 3.66 5 4.32 5 5 C6.32 5.33 7.64 5.66 9 6 C-0.41002278 8.29612756 -0.41002278 8.29612756 -5 8 C-4.67 7.01 -4.34 6.02 -4 5 C-4.33 4.34 -4.66 3.68 -5 3 C-3.02 3 -1.04 3 1 3 C0.67 2.01 0.34 1.02 0 0 Z " fill="#E2E5D4" transform="translate(29,120)"/>
<path d="M0 0 C3.63 0 7.26 0 11 0 C11 1.32 11 2.64 11 4 C4.565 4.495 4.565 4.495 -2 5 C-1.34 3.35 -0.68 1.7 0 0 Z " fill="#D4B2A4" transform="translate(53,62)"/>
<path d="M0 0 C1.99097846 2.98646769 2.94124926 5.59687262 4 9 C3.34 9 2.68 9 2 9 C2 8.34 2 7.68 2 7 C1.34 7 0.68 7 0 7 C0 7.66 0 8.32 0 9 C-1.65 9 -3.3 9 -5 9 C-5 6.66666667 -5 4.33333333 -5 2 C-3.68 2 -2.36 2 -1 2 C-0.67 1.34 -0.34 0.68 0 0 Z " fill="#3D2C2E" transform="translate(75,50)"/>
<path d="M0 0 C3.10408807 -0.05807043 6.2080364 -0.09361914 9.3125 -0.125 C10.19357422 -0.14175781 11.07464844 -0.15851563 11.98242188 -0.17578125 C12.82998047 -0.18222656 13.67753906 -0.18867187 14.55078125 -0.1953125 C15.72120972 -0.21102295 15.72120972 -0.21102295 16.9152832 -0.22705078 C19 0 19 0 22 2 C22.43132515 6.05445642 22.30019361 7.54970958 20 11 C19.34 11 18.68 11 18 11 C18 7.7 18 4.4 18 1 C12.06 1 6.12 1 0 1 C0 0.67 0 0.34 0 0 Z " fill="#555657" transform="translate(38,125)"/>
<path d="M0 0 C0.33 0.99 0.66 1.98 1 3 C1.33 3.33 1.66 3.66 2 4 C2.33 4 2.66 4 3 4 C4.07986163 9.29132198 3.92608479 12.93135582 2 18 C1.34 18.33 0.68 18.66 0 19 C0.20625 18.443125 0.4125 17.88625 0.625 17.3125 C1.11442853 14.2943574 0.1545231 12.82216758 -1 10 C-1.4563812 7.33612278 -1.72626861 4.69169201 -2 2 C-1.34 2 -0.68 2 0 2 C0 1.34 0 0.68 0 0 Z " fill="#EAEAD4" transform="translate(140,90)"/>
<path d="M0 0 C0.33 0 0.66 0 1 0 C1.95261487 4.76307437 2.08333357 9.1666528 2 14 C1.67 13.34 1.34 12.68 1 12 C-0.32 12 -1.64 12 -3 12 C-2.67 13.65 -2.34 15.3 -2 17 C-2.66 17 -3.32 17 -4 17 C-4 14.03 -4 11.06 -4 8 C-3.34 8 -2.68 8 -2 8 C-1.7834375 7.13375 -1.7834375 7.13375 -1.5625 6.25 C-1.04166667 4.16666667 -0.52083333 2.08333333 0 0 Z " fill="#28212A" transform="translate(73,40)"/>
<path d="M0 0 C0.33 0.66 0.66 1.32 1 2 C6.1693489 1.59443869 6.1693489 1.59443869 11 0 C13.3400417 0.28241883 15.67504723 0.61250787 18 1 C18.33 1.99 18.66 2.98 19 4 C17.02 4 15.04 4 13 4 C13 3.34 13 2.68 13 2 C12.34773438 2.13277344 11.69546875 2.26554687 11.0234375 2.40234375 C6.3591713 3.34482822 1.70131546 4.25768703 -3 5 C-2.625 3.0625 -2.625 3.0625 -2 1 C-1.34 0.67 -0.68 0.34 0 0 Z " fill="#35363A" transform="translate(37,120)"/>
<path d="M0 0 C1.81495662 0.44850658 3.62693134 0.90909571 5.4375 1.375 C6.95150391 1.75785156 6.95150391 1.75785156 8.49609375 2.1484375 C11 3 11 3 12 5 C10.87851563 4.96519531 10.87851563 4.96519531 9.734375 4.9296875 C8.74953125 4.91164063 7.7646875 4.89359375 6.75 4.875 C5.77546875 4.85179688 4.8009375 4.82859375 3.796875 4.8046875 C0.93830278 5.00430847 -0.52538147 5.6569378 -3 7 C-3.99 7 -4.98 7 -6 7 C-5.25 5.0625 -5.25 5.0625 -4 3 C-1.875 2.25 -1.875 2.25 0 2 C0 1.34 0 0.68 0 0 Z " fill="#CE8B6B" transform="translate(71,88)"/>
<path d="M0 0 C0 1.98 0 3.96 0 6 C-0.66 6 -1.32 6 -2 6 C-2 6.99 -2 7.98 -2 9 C-2.66 9 -3.32 9 -4 9 C-4.33 9.66 -4.66 10.32 -5 11 C-5.66 7.7 -6.32 4.4 -7 1 C-3 0 -3 0 0 0 Z " fill="#FCF7F1" transform="translate(56,127)"/>
<path d="M0 0 C1.65 0 3.3 0 5 0 C5.33 0.99 5.66 1.98 6 3 C2.29999334 6.54583971 -1.05057663 6.76051177 -6 7 C-6.66 6.34 -7.32 5.68 -8 5 C-6.02 4.67 -4.04 4.34 -2 4 C-2 3.34 -2 2.68 -2 2 C-1.34 1.67 -0.68 1.34 0 1 C0 0.67 0 0.34 0 0 Z " fill="#3D362E" transform="translate(72,109)"/>
<path d="M0 0 C2.64 0.33 5.28 0.66 8 1 C8.33 2.32 8.66 3.64 9 5 C8.01 4.67 7.02 4.34 6 4 C6 4.66 6 5.32 6 6 C4.02 6.33 2.04 6.66 0 7 C0 4.69 0 2.38 0 0 Z " fill="#362E24" transform="translate(64,107)"/>
<path d="M0 0 C0.33 0 0.66 0 1 0 C1.33 6.27 1.66 12.54 2 19 C1.01 19.33 0.02 19.66 -1 20 C-2.96476237 18.03523763 -2.18499562 14.36468224 -2.1875 11.6875 C-2.19974609 11.01009766 -2.21199219 10.33269531 -2.22460938 9.63476562 C-2.23551608 5.91558053 -2.05297477 3.15655014 0 0 Z " fill="#424143" transform="translate(92,124)"/>
<path d="M0 0 C0.09765625 6.15234375 0.09765625 6.15234375 0 8 C-1 9 -1 9 -3.5625 9.0625 C-4.366875 9.041875 -5.17125 9.02125 -6 9 C-6 5 -6 5 -3.5625 2.25 C-1 0 -1 0 0 0 Z " fill="#DEB8A8" transform="translate(89,112)"/>
<path d="M0 0 C2.475 0.99 2.475 0.99 5 2 C4.34 3.98 3.68 5.96 3 8 C3.66 8.33 4.32 8.66 5 9 C4.01 9.33 3.02 9.66 2 10 C1.34 9.34 0.68 8.68 0 8 C-0.99 9.485 -0.99 9.485 -2 11 C-3 4.375 -3 4.375 -3 1 C-1.515 1.99 -1.515 1.99 0 3 C0 3.99 0 4.98 0 6 C0.66 6 1.32 6 2 6 C2 4.68 2 3.36 2 2 C1.34 2 0.68 2 0 2 C0 1.34 0 0.68 0 0 Z " fill="#534D45" transform="translate(61,104)"/>
<path d="M0 0 C0 0.66 0 1.32 0 2 C-4.27113698 4.18326108 -8.50202887 6.31326082 -13 8 C-13 8.66 -13 9.32 -13 10 C-13.99 10.33 -14.98 10.66 -16 11 C-15.67 9.35 -15.34 7.7 -15 6 C-13.35 6 -11.7 6 -10 6 C-10 5.01 -10 4.02 -10 3 C-3.375 0 -3.375 0 0 0 Z " fill="#C7C0C2" transform="translate(63,24)"/>
<path d="M0 0 C0.6875 1.75 0.6875 1.75 1 4 C-0.4375 6.25 -0.4375 6.25 -2 8 C-2 7.01 -2 6.02 -2 5 C-2.66 5 -3.32 5 -4 5 C-4.33 6.98 -4.66 8.96 -5 11 C-5.99 11.33 -6.98 11.66 -8 12 C-8 10.68 -8 9.36 -8 8 C-7.34 7.67 -6.68 7.34 -6 7 C-5.855625 6.195625 -5.71125 5.39125 -5.5625 4.5625 C-4.83623924 1.25397876 -3.48538685 0 0 0 Z " fill="#E3E4DC" transform="translate(24,80)"/>
<path d="M0 0 C2.475 0.99 2.475 0.99 5 2 C5 2.66 5 3.32 5 4 C5.99 4.33 6.98 4.66 8 5 C8 5.99 8 6.98 8 8 C8.31669821 10.33564933 8.64820803 12.6693782 9 15 C6.24065984 13.62032992 5.82461359 11.9457655 4.5 9.1875 C4.0771875 8.31480469 3.654375 7.44210938 3.21875 6.54296875 C2.8165625 5.70378906 2.414375 4.86460938 2 4 C1.33602648 2.66532349 0.67038845 1.33146594 0 0 Z " fill="#C0B8BE" transform="translate(124,79)"/>
<path d="M0 0 C2.97 0.495 2.97 0.495 6 1 C8 7.75 8 7.75 8 10 C7.01 9.67 6.02 9.34 5 9 C4.855625 8.360625 4.71125 7.72125 4.5625 7.0625 C4.19895007 4.79688294 4.19895007 4.79688294 1.9375 3.75 C1.298125 3.5025 0.65875 3.255 0 3 C0 2.01 0 1.02 0 0 Z " fill="#EDE5E1" transform="translate(128,75)"/>
<path d="M0 0 C0.33 0 0.66 0 1 0 C1.34179688 2.97851562 1.34179688 2.97851562 1.68359375 5.95703125 C1.97170735 8.19396393 1.97170735 8.19396393 3 11 C-1.455 10.01 -1.455 10.01 -6 9 C-5.67 7.02 -5.34 5.04 -5 3 C-4.34 3 -3.68 3 -3 3 C-2.34 4.32 -1.68 5.64 -1 7 C-0.67 4.69 -0.34 2.38 0 0 Z " fill="#6D4634" transform="translate(64,50)"/>
<path d="M0 0 C0.97591583 3.38317487 0.85856655 5.5657338 0 9 C0.66 9 1.32 9 2 9 C1.67 10.65 1.34 12.3 1 14 C0.67 13.34 0.34 12.68 0 12 C-0.66 12 -1.32 12 -2 12 C-2.33 12.66 -2.66 13.32 -3 14 C-3.99 14.66 -4.98 15.32 -6 16 C-5.71382813 15.29488281 -5.42765625 14.58976563 -5.1328125 13.86328125 C-3.99523169 10.98794768 -2.92607644 8.09547814 -1.875 5.1875 C-1.34519531 3.72376953 -1.34519531 3.72376953 -0.8046875 2.23046875 C-0.53914063 1.49441406 -0.27359375 0.75835937 0 0 Z " fill="#DBDAD8" transform="translate(78,178)"/>
<path d="M0 0 C2.97 0 5.94 0 9 0 C9 0.33 9 0.66 9 1 C12.3 1.33 15.6 1.66 19 2 C19 2.33 19 2.66 19 3 C10.585 3.495 10.585 3.495 2 4 C3 2 3 2 4 1 C3.01 1 2.02 1 1 1 C0.67 1.99 0.34 2.98 0 4 C0 2.68 0 1.36 0 0 Z " fill="#DEDDD2" transform="translate(93,124)"/>
<path d="M0 0 C0.185625 0.9590625 0.185625 0.9590625 0.375 1.9375 C0.684375 2.9584375 0.684375 2.9584375 1 4 C1.66 4.33 2.32 4.66 3 5 C2.34 6.32 1.68 7.64 1 9 C1.99 8.67 2.98 8.34 4 8 C4 9.32 4 10.64 4 12 C2 12 0 12 -2 12 C-2.625 10.1875 -2.625 10.1875 -3 8 C-2.34 7.01 -1.68 6.02 -1 5 C-0.61500109 3.34450469 -0.27206865 1.6777567 0 0 Z " fill="#F3F4E2" transform="translate(139,100)"/>
<path d="M0 0 C2.96175123 0.61277612 4.38058783 1.25372522 7 3 C7 3.99 7 4.98 7 6 C6.34 6 5.68 6 5 6 C5 6.66 5 7.32 5 8 C4.01 8 3.02 8 2 8 C1.87625 7.195625 1.7525 6.39125 1.625 5.5625 C1.315625 4.2940625 1.315625 4.2940625 1 3 C0.34 2.67 -0.32 2.34 -1 2 C-0.67 1.34 -0.34 0.68 0 0 Z " fill="#CDA794" transform="translate(101,80)"/>
<path d="M0 0 C0.66 0 1.32 0 2 0 C2 0.66 2 1.32 2 2 C2.99 1.67 3.98 1.34 5 1 C5.66 1.33 6.32 1.66 7 2 C9.37123246 2.23029956 11.74741943 2.41119942 14.125 2.5625 C15.40632813 2.64628906 16.68765625 2.73007812 18.0078125 2.81640625 C19.48894531 2.90728516 19.48894531 2.90728516 21 3 C21 3.33 21 3.66 21 4 C19.21142578 3.98259766 19.21142578 3.98259766 17.38671875 3.96484375 C15.82031406 3.95546408 14.25390769 3.94636407 12.6875 3.9375 C11.90181641 3.92912109 11.11613281 3.92074219 10.30664062 3.91210938 C9.1706543 3.90727539 9.1706543 3.90727539 8.01171875 3.90234375 C7.31522217 3.89710693 6.61872559 3.89187012 5.90112305 3.88647461 C3.77502032 3.93104009 3.77502032 3.93104009 1 5 C-1.6875 4.0625 -1.6875 4.0625 -4 3 C-2.68 2.67 -1.36 2.34 0 2 C0 1.34 0 0.68 0 0 Z " fill="#B48C78" transform="translate(75,57)"/>
<path d="M0 0 C0.33 0 0.66 0 1 0 C0.67 2.97 0.34 5.94 0 9 C1.32 9 2.64 9 4 9 C3.67 9.99 3.34 10.98 3 12 C2.34 11.67 1.68 11.34 1 11 C1 12.98 1 14.96 1 17 C-2.07239571 11.46968772 -2.19261395 7.20159256 -1 1 C-0.67 0.67 -0.34 0.34 0 0 Z " fill="#484652" transform="translate(28,83)"/>
<path d="M0 0 C4 0 4 0 6 1 C5.01 2.485 5.01 2.485 4 4 C4.99 3.67 5.98 3.34 7 3 C6.34 5.31 5.68 7.62 5 10 C2.08772731 6.71195019 0.50298788 4.40114397 0 0 Z " fill="#ECEDE4" transform="translate(105,40)"/>
<path d="M0 0 C0.33 0 0.66 0 1 0 C1.06058594 0.74765625 1.12117188 1.4953125 1.18359375 2.265625 C1.26738281 3.25046875 1.35117187 4.2353125 1.4375 5.25 C1.51871094 6.22453125 1.59992187 7.1990625 1.68359375 8.203125 C1.95074584 10.56461753 2.35371968 12.71901065 3 15 C2.01 15 1.02 15 0 15 C-1.03876383 11.88370851 -1.13361625 9.6405571 -1.125 6.375 C-1.12757812 5.39273438 -1.13015625 4.41046875 -1.1328125 3.3984375 C-1 1 -1 1 0 0 Z " fill="#A1A297" transform="translate(17,98)"/>
<path d="M0 0 C0.99 0 1.98 0 3 0 C3 0.99 3 1.98 3 3 C3.66 2.67 4.32 2.34 5 2 C4.48964169 6.3890815 3.47785723 9.33708062 1 13 C0 10 0 10 0.5 8.1875 C1.16745352 5.26739084 0.59434773 2.90570003 0 0 Z " fill="#292127" transform="translate(80,160)"/>
<path d="M0 0 C4.95 0 9.9 0 15 0 C15 0.33 15 0.66 15 1 C13.35 1.33 11.7 1.66 10 2 C10 2.33 10 2.66 10 3 C7.36 3.33 4.72 3.66 2 4 C2.33 3.01 2.66 2.02 3 1 C2.01 0.67 1.02 0.34 0 0 Z " fill="#3C3E41" transform="translate(67,24)"/>
<path d="M0 0 C1.65 0 3.3 0 5 0 C5 0.66 5 1.32 5 2 C4.34 2 3.68 2 3 2 C2.731875 2.639375 2.46375 3.27875 2.1875 3.9375 C1 6 1 6 -2 7 C-2.33 5.68 -2.66 4.36 -3 3 C-2.34 3 -1.68 3 -1 3 C-0.67 2.01 -0.34 1.02 0 0 Z " fill="#D6B49C" transform="translate(91,96)"/>
<path d="M0 0 C0.33 0.66 0.66 1.32 1 2 C1.99 1.67 2.98 1.34 4 1 C5.61949011 3.57213134 6.04408751 4.67669159 5.625 7.75 C5.41875 8.4925 5.2125 9.235 5 10 C4.34 10 3.68 10 3 10 C2.87625 9.360625 2.7525 8.72125 2.625 8.0625 C2.315625 7.0415625 2.315625 7.0415625 2 6 C1.34 5.67 0.68 5.34 0 5 C0 3.35 0 1.7 0 0 Z " fill="#3F3A3A" transform="translate(112,59)"/>
<path d="M0 0 C2.31 0 4.62 0 7 0 C7 2.64 7 5.28 7 8 C6.34 8 5.68 8 5 8 C3.98133771 6.34467377 2.98189187 4.67739862 2 3 C1.34 2.67 0.68 2.34 0 2 C0 1.34 0 0.68 0 0 Z " fill="#EBE2D2" transform="translate(105,144)"/>
<path d="M0 0 C3.80881639 1.44472346 5.29742886 3.32603071 7 7 C6.67 7.99 6.34 8.98 6 10 C5.67 9.67 5.34 9.34 5 9 C4.34 10.32 3.68 11.64 3 13 C3 10.03 3 7.06 3 4 C2.34 3.67 1.68 3.34 1 3 C0.67 2.01 0.34 1.02 0 0 Z " fill="#FAF3F1" transform="translate(130,85)"/>
<path d="M0 0 C3.00617269 3.00617269 2.59585316 5.82381598 3 10 C3.66 10 4.32 10 5 10 C4.34 11.98 3.68 13.96 3 16 C0.96780512 12.59648662 0.63108961 9.6767073 0.375 5.75 C0.30023438 4.67234375 0.22546875 3.5946875 0.1484375 2.484375 C0.09945312 1.66453125 0.05046875 0.8446875 0 0 Z " fill="#3C3037" transform="translate(99,59)"/>
<path d="M0 0 C0.33 0 0.66 0 1 0 C0.67 4.29 0.34 8.58 0 13 C-0.99 12.67 -1.98 12.34 -3 12 C-3 9.69 -3 7.38 -3 5 C-2.34 5 -1.68 5 -1 5 C-0.67 3.35 -0.34 1.7 0 0 Z " fill="#33201E" transform="translate(64,45)"/>
<path d="M0 0 C0 0.66 0 1.32 0 2 C-0.99 2.495 -0.99 2.495 -2 3 C-1.67 3.66 -1.34 4.32 -1 5 C-2.65 4.67 -4.3 4.34 -6 4 C-6 3.01 -6 2.02 -6 1 C-6.66 0.67 -7.32 0.34 -8 0 C-5.13822943 -1.43088528 -3.06624227 -0.59991697 0 0 Z " fill="#342926" transform="translate(86,49)"/>
<path d="M0 0 C1.76462683 3.08809695 2 4.23312136 2 8 C0.02 8.66 -1.96 9.32 -4 10 C-2.99806563 6.20696275 -2.18975773 3.28463659 0 0 Z " fill="#DFDFD7" transform="translate(91,152)"/>
<path d="M0 0 C2.31 0 4.62 0 7 0 C7 0.99 7 1.98 7 3 C5.68 3 4.36 3 3 3 C3 3.66 3 4.32 3 5 C3.66 5.33 4.32 5.66 5 6 C4.34 7.65 3.68 9.3 3 11 C2.67 11 2.34 11 2 11 C2 7.7 2 4.4 2 1 C1.34 0.67 0.68 0.34 0 0 Z " fill="#423C37" transform="translate(61,121)"/>
<path d="M0 0 C0.33 0.66 0.66 1.32 1 2 C-0.57347176 3.035969 -2.15921546 4.05331732 -3.75 5.0625 C-4.63171875 5.63097656 -5.5134375 6.19945313 -6.421875 6.78515625 C-9 8 -9 8 -13 7 C-8.71 4.69 -4.42 2.38 0 0 Z " fill="#472E1B" transform="translate(89,103)"/>
<path d="M0 0 C0.66 0.66 1.32 1.32 2 2 C1.67 2.99 1.34 3.98 1 5 C-1.31 5.33 -3.62 5.66 -6 6 C-4.68 5.67 -3.36 5.34 -2 5 C-2 4.34 -2 3.68 -2 3 C-2.928125 3.20625 -3.85625 3.4125 -4.8125 3.625 C-8 4 -8 4 -11 2 C-7.7 2 -4.4 2 -1 2 C-0.67 1.34 -0.34 0.68 0 0 Z " fill="#D7B9A4" transform="translate(81,103)"/>
<path d="M0 0 C1.65 0 3.3 0 5 0 C5.125 6.75 5.125 6.75 4 9 C3.34 9 2.68 9 2 9 C2 6.69 2 4.38 2 2 C1.34 2 0.68 2 0 2 C-0.33 2.66 -0.66 3.32 -1 4 C-0.67 2.68 -0.34 1.36 0 0 Z " fill="#383031" transform="translate(43,74)"/>
<path d="M0 0 C4.29 0 8.58 0 13 0 C12.67 1.32 12.34 2.64 12 4 C11.67 3.34 11.34 2.68 11 2 C8.87423218 1.53348793 8.87423218 1.53348793 6.4375 1.375 C5.61121094 1.30023438 4.78492187 1.22546875 3.93359375 1.1484375 C3.29550781 1.09945312 2.65742187 1.05046875 2 1 C2 1.66 2 2.32 2 3 C1.34 3 0.68 3 0 3 C0 2.01 0 1.02 0 0 Z " fill="#F3C3A9" transform="translate(83,61)"/>
<path d="M0 0 C0.99 0 1.98 0 3 0 C5 3 5 3 5 7 C3.02 7.33 1.04 7.66 -1 8 C-0.01 7.67 0.98 7.34 2 7 C2 6.34 2 5.68 2 5 C1.01 4.67 0.02 4.34 -1 4 C-0.34 3.34 0.32 2.68 1 2 C0.67 1.34 0.34 0.68 0 0 Z " fill="#4E373C" transform="translate(83,51)"/>
<path d="M0 0 C0.66 0 1.32 0 2 0 C1.67 2.31 1.34 4.62 1 7 C0.34 7 -0.32 7 -1 7 C-1.66 8.32 -2.32 9.64 -3 11 C-3.33 8.36 -3.66 5.72 -4 3 C-2.68 3 -1.36 3 0 3 C0 2.01 0 1.02 0 0 Z " fill="#E9E3DD" transform="translate(54,133)"/>
<path d="M0 0 C0 0.99 0 1.98 0 3 C-5.625 5.125 -5.625 5.125 -9 4 C-9 3.34 -9 2.68 -9 2 C-5.86501708 0.14223235 -3.62528568 -0.20140476 0 0 Z " fill="#DDC4AF" transform="translate(80,113)"/>
<path d="M0 0 C0.66 0 1.32 0 2 0 C1.88590407 1.45922693 1.75834456 2.91740598 1.625 4.375 C1.55539063 5.18710938 1.48578125 5.99921875 1.4140625 6.8359375 C1 9 1 9 -1 11 C-2.1875 8.3125 -2.1875 8.3125 -3 5 C-1.75 2.125 -1.75 2.125 0 0 Z " fill="#D7D8D0" transform="translate(21,93)"/>
<path d="M0 0 C3.33727786 1.17255709 5.77437487 2.18868404 8 5 C8 5.66 8 6.32 8 7 C6 6 4 5 2 4 C2 4.66 2 5.32 2 6 C1.01 5.67 0.02 5.34 -1 5 C-0.34 4.67 0.32 4.34 1 4 C1 3.34 1 2.68 1 2 C0.34 1.67 -0.32 1.34 -1 1 C-0.67 0.67 -0.34 0.34 0 0 Z " fill="#ECC3AF" transform="translate(47,87)"/>
<path d="M0 0 C0.66 0 1.32 0 2 0 C2 0.99 2 1.98 2 3 C2.66 3 3.32 3 4 3 C4 2.34 4 1.68 4 1 C6.97 1.33 9.94 1.66 13 2 C12.67 2.66 12.34 3.32 12 4 C10.9275 3.979375 9.855 3.95875 8.75 3.9375 C5.8070768 3.98654872 3.77223939 4.28127127 1 5 C0.34 4.67 -0.32 4.34 -1 4 C-0.67 2.68 -0.34 1.36 0 0 Z " fill="#D8B28E" transform="translate(81,61)"/>
<path d="M0 0 C0.66 0 1.32 0 2 0 C3.17353189 3.52059568 3.20146402 6.306493 3 10 C2.34 10.66 1.68 11.32 1 12 C1 10.68 1 9.36 1 8 C0.34 8 -0.32 8 -1 8 C-0.67 5.36 -0.34 2.72 0 0 Z " fill="#222223" transform="translate(68,176)"/>
<path d="M0 0 C0.99 0.99 1.98 1.98 3 3 C2.67 3.66 2.34 4.32 2 5 C2 5.33 2 5.66 2 6 C2 6.99 2 7.98 2 9 C0.68 9 -0.64 9 -2 9 C-1.51421457 5.87709365 -1.0013988 3.00419641 0 0 Z " fill="#1F1E2F" transform="translate(30,83)"/>
<path d="M0 0 C0.66 0.33 1.32 0.66 2 1 C2 2.32 2 3.64 2 5 C2.99 5 3.98 5 5 5 C4.67 5.99 4.34 6.98 4 8 C2.35 8 0.7 8 -1 8 C-0.67 5.36 -0.34 2.72 0 0 Z " fill="#24222E" transform="translate(113,64)"/>
<path d="M0 0 C0 0.99 0 1.98 0 3 C2.97 3.495 2.97 3.495 6 4 C6 4.33 6 4.66 6 5 C1.71 4.67 -2.58 4.34 -7 4 C-3 0 -3 0 0 0 Z " fill="#432C2A" transform="translate(58,56)"/>
<path d="M0 0 C4.29 0.33 8.58 0.66 13 1 C13 1.66 13 2.32 13 3 C7.96488101 4.0070238 4.76052962 3.97387813 0 2 C0 1.34 0 0.68 0 0 Z " fill="#EBCEB9" transform="translate(66,105)"/>
<path d="M0 0 C2.97 0.495 2.97 0.495 6 1 C6 2.32 6 3.64 6 5 C3.36 4.67 0.72 4.34 -2 4 C-2 3.34 -2 2.68 -2 2 C-1.34 2 -0.68 2 0 2 C0 1.34 0 0.68 0 0 Z " fill="#44362C" transform="translate(106,86)"/>
<path d="M0 0 C3 3 3 3 3.1875 6.1875 C3.125625 7.115625 3.06375 8.04375 3 9 C1.35 9 -0.3 9 -2 9 C-1.34 6.03 -0.68 3.06 0 0 Z " fill="#48464A" transform="translate(34,60)"/>
<path d="M0 0 C0.99 0 1.98 0 3 0 C3 1.65 3 3.3 3 5 C1.02 5 -0.96 5 -3 5 C-1.125 1.125 -1.125 1.125 0 0 Z " fill="#1E3343" transform="translate(93,51)"/>
<path d="M0 0 C0.33 0.66 0.66 1.32 1 2 C1.66 2 2.32 2 3 2 C3.33 1.34 3.66 0.68 4 0 C4.33 1.98 4.66 3.96 5 6 C4.01 6 3.02 6 2 6 C1.67 5.01 1.34 4.02 1 3 C0.34 3 -0.32 3 -1 3 C-1 3.99 -1 4.98 -1 6 C-1.66 5.67 -2.32 5.34 -3 5 C-2.01 3.35 -1.02 1.7 0 0 Z " fill="#51474B" transform="translate(43,40)"/>
<path d="M0 0 C0.99 0.33 1.98 0.66 3 1 C3 4.3 3 7.6 3 11 C0 9 0 9 -0.546875 7.08984375 C-0.7381288 5.06328901 -0.87101785 3.03146886 -1 1 C-0.67 0.67 -0.34 0.34 0 0 Z " fill="#555053" transform="translate(130,93)"/>
<path d="M0 0 C0 0.66 0 1.32 0 2 C-2.66666667 3.33333333 -5.33333333 4.66666667 -8 6 C-8 4.68 -8 3.36 -8 2 C-4.77208445 -0.1519437 -3.71599191 -0.20086443 0 0 Z " fill="#D9A883" transform="translate(72,81)"/>
<path d="M0 0 C0.99 0 1.98 0 3 0 C3 3.63 3 7.26 3 11 C2.01 11 1.02 11 0 11 C0.185625 9.9275 0.37125 8.855 0.5625 7.75 C0.9304568 4.59608454 1.04465343 2.90181508 0 0 Z " fill="#ECB9AE" transform="translate(95,71)"/>
<path d="M0 0 C1.99097846 2.98646769 2.94124926 5.59687262 4 9 C3.34 9 2.68 9 2 9 C2 8.34 2 7.68 2 7 C0.68 7 -0.64 7 -2 7 C-1.42415568 4.61435923 -0.77772405 2.33317216 0 0 Z " fill="#674C46" transform="translate(75,50)"/>
<path d="M0 0 C0.66 0 1.32 0 2 0 C2 1.98 2 3.96 2 6 C0.35 6.33 -1.3 6.66 -3 7 C-3.33 6.34 -3.66 5.68 -4 5 C-3.34 4.67 -2.68 4.34 -2 4 C-2.33 3.34 -2.66 2.68 -3 2 C-2.01 2 -1.02 2 0 2 C0 1.34 0 0.68 0 0 Z " fill="#D7AE90" transform="translate(62,97)"/>
<path d="M0 0 C0.33 0.66 0.66 1.32 1 2 C0.34 2 -0.32 2 -1 2 C-1 2.99 -1 3.98 -1 5 C-1.66 5 -2.32 5 -3 5 C-3.66 6.65 -4.32 8.3 -5 10 C-6 7 -6 7 -4.75 3.875 C-3 1 -3 1 0 0 Z " fill="#5D5E57" transform="translate(24,88)"/>
<path d="M0 0 C0.66 0 1.32 0 2 0 C2 0.99 2 1.98 2 3 C-3.859375 4.07421875 -3.859375 4.07421875 -6 4 C-7.32 3.01 -8.64 2.02 -10 1 C-6.7 1 -3.4 1 0 1 C0 0.67 0 0.34 0 0 Z " fill="#E4A282" transform="translate(82,91)"/>
<path d="M0 0 C1.98 0 3.96 0 6 0 C5.67 1.32 5.34 2.64 5 4 C3.35 3.67 1.7 3.34 0 3 C0 2.01 0 1.02 0 0 Z " fill="#1D324C" transform="translate(102,93)"/>
<path d="M0 0 C1.65 0 3.3 0 5 0 C4.1875 1.9375 4.1875 1.9375 3 4 C-0.13349732 5.04449911 -0.98968256 4.93423645 -4 4 C-4 3.34 -4 2.68 -4 2 C-2.68 2 -1.36 2 0 2 C0 1.34 0 0.68 0 0 Z " fill="#EAC6B5" transform="translate(70,60)"/>
<path d="M0 0 C0.99 0 1.98 0 3 0 C3.33 1.65 3.66 3.3 4 5 C3.34 4.67 2.68 4.34 2 4 C1.34 5.32 0.68 6.64 0 8 C-1.125 2.25 -1.125 2.25 0 0 Z " fill="#433B41" transform="translate(60,160)"/>
<path d="M0 0 C1.32 0 2.64 0 4 0 C3.67 1.32 3.34 2.64 3 4 C1.68 4.33 0.36 4.66 -1 5 C-0.67 3.35 -0.34 1.7 0 0 Z " fill="#F4BE9E" transform="translate(81,112)"/>
<path d="M0 0 C0.66 0.33 1.32 0.66 2 1 C1.67 1.99 1.34 2.98 1 4 C1.66 4 2.32 4 3 4 C3 5.65 3 7.3 3 9 C2.34 8.67 1.68 8.34 1 8 C1 7.34 1 6.68 1 6 C0.34 6 -0.32 6 -1 6 C-1.625 4.125 -1.625 4.125 -2 2 C-1.34 1.34 -0.68 0.68 0 0 Z " fill="#D9DBCF" transform="translate(124,66)"/>
<path d="M0 0 C1.32 1.32 2.64 2.64 4 4 C3.67 4.66 3.34 5.32 3 6 C2.34 5.67 1.68 5.34 1 5 C0.67 5.99 0.34 6.98 0 8 C-0.68707555 5.50935112 -1 3.62113708 -1 1 C-0.67 0.67 -0.34 0.34 0 0 Z " fill="#414042" transform="translate(105,44)"/>
<path d="M0 0 C0.93065133 2.60582371 1.14917407 3.64198224 0.0625 6.25 C-0.4634375 7.11625 -0.4634375 7.11625 -1 8 C-1.66 8 -2.32 8 -3 8 C-2.74438677 5.6568787 -2.40729228 3.32156597 -2 1 C-1.34 0.67 -0.68 0.34 0 0 Z " fill="#262524" transform="translate(73,186)"/>
<path d="M0 0 C2.49361571 1.20381448 4.68143083 2.45428722 7 4 C7 4.66 7 5.32 7 6 C4.625 5.8125 4.625 5.8125 2 5 C0.6875 2.4375 0.6875 2.4375 0 0 Z " fill="#E3E4DF" transform="translate(17,114)"/>
<path d="M0 0 C0.66 0 1.32 0 2 0 C2.33 1.32 2.66 2.64 3 4 C2.34 4 1.68 4 1 4 C1 4.66 1 5.32 1 6 C0.01 5.67 -0.98 5.34 -2 5 C-2 2 -2 2 0 0 Z " fill="#E2A895" transform="translate(100,83)"/>
<path d="M0 0 C2.5 0.3125 2.5 0.3125 5 1 C5.33 1.66 5.66 2.32 6 3 C5.34 3.66 4.68 4.32 4 5 C4 4.01 4 3.02 4 2 C2.35 2.66 0.7 3.32 -1 4 C-1 1 -1 1 0 0 Z " fill="#E6AC8E" transform="translate(91,81)"/>
<path d="M0 0 C2.71675995 0.36712972 4.61063713 0.72744599 6.875 2.3125 C8 4 8 4 7.6875 6.1875 C7.460625 6.785625 7.23375 7.38375 7 8 C5.76302083 6.50260417 4.52604167 5.00520833 3.2890625 3.5078125 C2.24749008 2.28948839 1.13339903 1.13339903 0 0 Z " fill="#FEF9F2" transform="translate(112,48)"/>
<path d="M0 0 C0.33 0.66 0.66 1.32 1 2 C3.02463255 2.65213292 3.02463255 2.65213292 5 3 C1.91190305 4.76462683 0.76687864 5 -3 5 C-2.625 3.0625 -2.625 3.0625 -2 1 C-1.34 0.67 -0.68 0.34 0 0 Z " fill="#3C3C3E" transform="translate(37,120)"/>
<path d="M0 0 C0.33 0 0.66 0 1 0 C1 2.64 1 5.28 1 8 C-0.65 8 -2.3 8 -4 8 C-2.68 5.36 -1.36 2.72 0 0 Z " fill="#E7C8BF" transform="translate(88,112)"/>
<path d="M0 0 C0.33 0 0.66 0 1 0 C1.08121924 1.60332791 1.13929134 3.20784026 1.1875 4.8125 C1.23970703 6.15248047 1.23970703 6.15248047 1.29296875 7.51953125 C0.95081002 10.41647515 0.24606427 11.22555028 -2 13 C-2 11.02 -2 9.04 -2 7 C-1.34 7 -0.68 7 0 7 C0 4.69 0 2.38 0 0 Z " fill="#151516" transform="translate(131,95)"/>
<path d="M0 0 C0.25 6.625 0.25 6.625 -2 10 C-2.33 7.03 -2.66 4.06 -3 1 C-1 0 -1 0 0 0 Z " fill="#DCDBCE" transform="translate(138,94)"/>
<path d="M0 0 C1.32 0.66 2.64 1.32 4 2 C4 1.34 4 0.68 4 0 C4.99 0.33 5.98 0.66 7 1 C7 1.66 7 2.32 7 3 C4.69 3 2.38 3 0 3 C-0.33 3.99 -0.66 4.98 -1 6 C-0.67 4.02 -0.34 2.04 0 0 Z " fill="#EEBBAA" transform="translate(97,87)"/>
<path d="M0 0 C2 3 2 3 2 5 C2.66 5 3.32 5 4 5 C3.67 6.32 3.34 7.64 3 9 C2.34 9 1.68 9 1 9 C0.67 6.03 0.34 3.06 0 0 Z " fill="#EABFA9" transform="translate(52,80)"/>
<path d="M0 0 C1.32 0.33 2.64 0.66 4 1 C3.67 2.98 3.34 4.96 3 7 C2.01 6.34 1.02 5.68 0 5 C-0.1875 2.375 -0.1875 2.375 0 0 Z " fill="#3C2927" transform="translate(36,81)"/>
<path d="M0 0 C0.33 0 0.66 0 1 0 C0.67 2.31 0.34 4.62 0 7 C-1.65 7.33 -3.3 7.66 -5 8 C-4 6 -4 6 -2.5 4.5625 C-0.74916008 2.9622647 -0.74916008 2.9622647 0 0 Z " fill="#22262A" transform="translate(111,74)"/>
<path d="M0 0 C0.66 0 1.32 0 2 0 C2.1875 2.875 2.1875 2.875 2 6 C1.01 6.66 0.02 7.32 -1 8 C-1.93065133 5.39417629 -2.14917407 4.35801776 -1.0625 1.75 C-0.711875 1.1725 -0.36125 0.595 0 0 Z " fill="#4F4C53" transform="translate(41,73)"/>
<path d="M0 0 C1.98 0.495 1.98 0.495 4 1 C3.67 2.98 3.34 4.96 3 7 C1.68 5.68 0.36 4.36 -1 3 C-0.34 2.67 0.32 2.34 1 2 C0.67 1.34 0.34 0.68 0 0 Z " fill="#E4E3E6" transform="translate(100,32)"/>
<path d="M0 0 C1.10914742 3.32744227 1.03211839 5.64561525 0 9 C-1.5625 10.8125 -1.5625 10.8125 -3 12 C-2.14285714 3.42857143 -2.14285714 3.42857143 0 0 Z " fill="#CDCDCD" transform="translate(78,178)"/>
<path d="M0 0 C0.33 0.99 0.66 1.98 1 3 C1.66 3.33 2.32 3.66 3 4 C2.01 5.32 1.02 6.64 0 8 C-1.0625 6.1875 -1.0625 6.1875 -2 4 C-1 1 -1 1 0 0 Z " fill="#393A34" transform="translate(90,146)"/>
<path d="M0 0 C2 3 2 3 1.625 6.1875 C1.41875 7.115625 1.2125 8.04375 1 9 C0.34 9 -0.32 9 -1 9 C-0.67 6.03 -0.34 3.06 0 0 Z " fill="#25261E" transform="translate(92,140)"/>
<path d="M0 0 C2.71595986 3.1540179 3.96846241 4.87384964 5 9 C2.69 7.02 0.38 5.04 -2 3 C-1.34 2.67 -0.68 2.34 0 2 C0 1.34 0 0.68 0 0 Z " fill="#615959" transform="translate(131,80)"/>
<path d="M0 0 C0.66 0 1.32 0 2 0 C3 3 3 3 2 6 C1.34 6 0.68 6 0 6 C-0.33 6.99 -0.66 7.98 -1 9 C-0.67 6.03 -0.34 3.06 0 0 Z " fill="#C0B8B5" transform="translate(26,74)"/>
<path d="M0 0 C2.31 0 4.62 0 7 0 C7 0.66 7 1.32 7 2 C6.01 2 5.02 2 4 2 C4 2.66 4 3.32 4 4 C4.66 4.33 5.32 4.66 6 5 C4.125 4.75 4.125 4.75 2 4 C0.75 1.9375 0.75 1.9375 0 0 Z " fill="#F9C2A1" transform="translate(65,66)"/>
<path d="M0 0 C1.80411967 2.75924185 2.0127245 3.88972103 1.625 7.25 C1.41875 8.1575 1.2125 9.065 1 10 C-0.80411967 7.24075815 -1.0127245 6.11027897 -0.625 2.75 C-0.41875 1.8425 -0.2125 0.935 0 0 Z " fill="#8D8A94" transform="translate(75,40)"/>
<path d="M0 0 C-0.99 0 -1.98 0 -3 0 C-3.33 1.32 -3.66 2.64 -4 4 C-6.475 3.01 -6.475 3.01 -9 2 C-5.945634 -1.054366 -3.9532319 -1.22686507 0 0 Z " fill="#413B3D" transform="translate(67,26)"/>
<path d="M0 0 C0.33 0.66 0.66 1.32 1 2 C2.32 1.34 3.64 0.68 5 0 C4.67 1.98 4.34 3.96 4 6 C3.34 6 2.68 6 2 6 C1.34 5.34 0.68 4.68 0 4 C0 2.68 0 1.36 0 0 Z " fill="#222222" transform="translate(72,179)"/>
<path d="M0 0 C0.33 0.66 0.66 1.32 1 2 C3.52733235 2.65555119 3.52733235 2.65555119 6 3 C5.67 3.99 5.34 4.98 5 6 C5 5.34 5 4.68 5 4 C4.34 4 3.68 4 3 4 C3 4.66 3 5.32 3 6 C1.66666667 5.33333333 0.33333333 4.66666667 -1 4 C-0.67 2.68 -0.34 1.36 0 0 Z " fill="#DFD6D7" transform="translate(82,170)"/>
<path d="M0 0 C0.33 0 0.66 0 1 0 C0.67 2.64 0.34 5.28 0 8 C-0.66 8 -1.32 8 -2 8 C-1.125 1.125 -1.125 1.125 0 0 Z " fill="#FEF7F8" transform="translate(60,168)"/>
<path d="M0 0 C0.66 0 1.32 0 2 0 C2.625 3.375 2.625 3.375 3 7 C2.34 7.66 1.68 8.32 1 9 C-0.4783226 6.04335481 -0.06032783 3.25770263 0 0 Z " fill="#22262B" transform="translate(58,153)"/>
<path d="M0 0 C0.99 0.33 1.98 0.66 3 1 C3 4.3 3 7.6 3 11 C2.67 11 2.34 11 2 11 C1.34 7.37 0.68 3.74 0 0 Z " fill="#32363B" transform="translate(58,122)"/>
<path d="M0 0 C-2.75924185 1.80411967 -3.88972103 2.0127245 -7.25 1.625 C-8.1575 1.41875 -9.065 1.2125 -10 1 C-6.1496895 -1.56687367 -4.41430237 -0.83288724 0 0 Z " fill="#6B5544" transform="translate(74,114)"/>
<path d="M0 0 C1.60080151 4.00200378 0.29279692 7.04556236 -1 11 C-2.33332095 8.3333581 -1.67102033 6.83319697 -1 4 C-1.66 3.67 -2.32 3.34 -3 3 C-2.34 3 -1.68 3 -1 3 C-0.67 2.01 -0.34 1.02 0 0 Z " fill="#A9A8AD" transform="translate(26,87)"/>
<path d="M0 0 C0.66 0 1.32 0 2 0 C2.66 1.32 3.32 2.64 4 4 C2.35 4.66 0.7 5.32 -1 6 C-0.67 4.02 -0.34 2.04 0 0 Z " fill="#E9AB8E" transform="translate(45,83)"/>
<path d="M0 0 C1.9375 0.3125 1.9375 0.3125 4 1 C4.33 1.99 4.66 2.98 5 4 C3.68 4 2.36 4 1 4 C0.67 2.68 0.34 1.36 0 0 Z " fill="#E6DFD8" transform="translate(128,75)"/>
<path d="M0 0 C1.98 0 3.96 0 6 0 C4.68 0.33 3.36 0.66 2 1 C2 1.99 2 2.98 2 4 C0.68 4.33 -0.64 4.66 -2 5 C-1.34 3.35 -0.68 1.7 0 0 Z " fill="#E4CFCD" transform="translate(53,62)"/>
<path d="M0 0 C0.66 0 1.32 0 2 0 C2.33 1.98 2.66 3.96 3 6 C1.68 6 0.36 6 -1 6 C-0.67 4.02 -0.34 2.04 0 0 Z " fill="#A58F8B" transform="translate(59,53)"/>
<path d="M0 0 C0.99 0.33 1.98 0.66 3 1 C3.6875 3.0625 3.6875 3.0625 4 5 C3.01 4.67 2.02 4.34 1 4 C0.67 4.66 0.34 5.32 0 6 C-0.66 5.67 -1.32 5.34 -2 5 C-1.34 3.35 -0.68 1.7 0 0 Z " fill="#222029" transform="translate(106,49)"/>
<path d="M0 0 C0.33 0 0.66 0 1 0 C1 2.97 1 5.94 1 9 C0.01 8.34 -0.98 7.68 -2 7 C-1.125 1.125 -1.125 1.125 0 0 Z " fill="#232321" transform="translate(39,51)"/>
<path d="M0 0 C4 0 4 0 6 1 C4.68 2.32 3.36 3.64 2 5 C1.34 4.67 0.68 4.34 0 4 C0 2.68 0 1.36 0 0 Z " fill="#E4E5DD" transform="translate(105,40)"/>
<path d="M0 0 C3.3125 -0.3125 3.3125 -0.3125 7 0 C8.9375 2.5 8.9375 2.5 10 5 C9.46375 4.71125 8.9275 4.4225 8.375 4.125 C5.64719516 2.83288192 2.87387282 1.91441408 0 1 C0 0.67 0 0.34 0 0 Z " fill="#CFCFCC" transform="translate(84,25)"/>
</svg>
